<?xml version="1.0" standalone="no"?>
<!DOCTYPE svg PUBLIC "-//W3C//DTD SVG 1.1//EN" "http://www.w3.org/Graphics/SVG/1.1/DTD/svg11.dtd" >
<svg xmlns="http://www.w3.org/2000/svg" xmlns:xlink="http://www.w3.org/1999/xlink" version="1.1">
<metadata>
Created by FontForge 20200427 at Thu Feb 18 20:39:13 2016
 By www
(c)2001 G-Type.  Designed and digitized by Nick Cooke  01943 461 808
</metadata>
<defs>
<font id="PreciousSans-BookW00-Rg" horiz-adv-x="500" >
  <font-face 
    font-family="PreciousSans-BookW00-Rg"
    font-weight="400"
    font-stretch="normal"
    units-per-em="1000"
    panose-1="1 0 0 0 0 0 0 0 0 0"
    ascent="800"
    descent="-200"
    x-height="495"
    cap-height="715"
    bbox="-61 -291 1303 991"
    underline-thickness="50"
    underline-position="-125"
    unicode-range="U+0020-F002"
  />
<missing-glyph 
d="M63 0v743h375v-743h-375zM125 63h250v618h-250v-618z" />
    <glyph glyph-name=".notdef" 
d="M63 0v743h375v-743h-375zM125 63h250v618h-250v-618z" />
    <glyph glyph-name="glyph1" horiz-adv-x="0" 
 />
    <glyph glyph-name="glyph2" horiz-adv-x="327" 
 />
    <glyph glyph-name="glyph260" horiz-adv-x="0" 
 />
    <glyph glyph-name="glyph260" horiz-adv-x="0" 
 />
    <glyph glyph-name="space" unicode=" " horiz-adv-x="327" 
 />
    <glyph glyph-name="exclam" unicode="!" horiz-adv-x="260" 
d="M163 715l-1 -179l-8 -330h-48l-8 330v179h65zM161 0h-62v114h62v-114z" />
    <glyph glyph-name="quotedbl" unicode="&#x22;" horiz-adv-x="400" 
d="M325 714l-4 -224h-54l-5 224h63zM138 714l-5 -224h-53l-5 224h63z" />
    <glyph glyph-name="numbersign" unicode="#" horiz-adv-x="728" 
d="M682 431l-11 -52h-139l-38 -187h140l-11 -52h-139l-28 -140h-57l28 140h-185l-28 -140h-56l28 140h-140l11 52h139l37 187h-139l11 52h139l28 140h57l-28 -140h184l29 140h56l-28 -140h140zM475 379h-185l-37 -187h184z" />
    <glyph glyph-name="dollar" unicode="$" horiz-adv-x="656" 
d="M546 182q0 -83 -58 -133q-52 -45 -139 -58v-77h-53v72h-15q-96 0 -170 25l7 56q84 -26 159 -26q92 0 147 34.5t55 100.5q0 61 -51 98q-31 22 -108 51q-80 29 -115 53q-74 51 -74 136q0 75 48 123q45 45 117 56v86h53v-83q57 -3 111 -21l-6 -55q-55 19 -110 19
q-67 0 -108 -32t-41 -90t71 -99q21 -12 102 -42q72 -26 107 -52q71 -52 71 -142z" />
    <glyph glyph-name="percent" unicode="%" horiz-adv-x="995" 
d="M902 194q0 -209 -169 -209q-170 0 -170 209t170 209q169 0 169 -209zM744 715l-427 -718h-66l427 718h66zM432 519q0 -209 -169 -209q-170 0 -170 209t170 209q169 0 169 -209zM850 194q0 161 -117 161t-117 -161q0 -162 117 -162t117 162zM380 519q0 161 -117 161
t-117 -161t117 -161t117 161z" />
    <glyph glyph-name="ampersand" unicode="&#x26;" horiz-adv-x="671" 
d="M638 0h-78l-94 120q-29 -135 -198 -135q-91 0 -146 52t-55 148q0 185 195 197q-72 100 -72 173q0 175 186 175q86 0 140 -42l-21 -54q-47 38 -114 38q-128 0 -128 -119q0 -62 104 -195l72 -92q30 118 134 118h32v-57h-23q-85 0 -97 -119zM418 181l-123 156l-4 1
q-161 2 -161 -153q0 -77 43 -117q37 -36 97 -36q136 0 147 137z" />
    <glyph glyph-name="quotesingle" unicode="'" horiz-adv-x="213" 
d="M138 714l-5 -224h-53l-5 224h63z" />
    <glyph glyph-name="parenleft" unicode="(" horiz-adv-x="369" 
d="M294 -61l-7 -49q-97 38 -145 128q-61 114 -61 334t61 334q48 90 145 127l7 -48q-71 -35 -106 -120q-42 -102 -42 -293q0 -192 42 -294q35 -85 106 -119z" />
    <glyph glyph-name="parenright" unicode=")" horiz-adv-x="369" 
d="M288 352q0 -220 -61 -334q-48 -90 -145 -128l-7 49q71 34 106 119q42 102 42 294q0 191 -42 293q-35 85 -106 120l7 48q97 -37 145 -127q61 -114 61 -334z" />
    <glyph glyph-name="asterisk" unicode="*" horiz-adv-x="581" 
d="M473 563l-141 -45l87 -120l-42 -30l-87 121l-86 -121l-42 30l88 120l-142 46l16 49l141 -47v149h52l-1 -149l141 47z" />
    <glyph glyph-name="plus" unicode="+" horiz-adv-x="623" 
d="M524 316h-184v-185h-57v185h-183v55h183v184h57v-184h184v-55z" />
    <glyph glyph-name="comma" unicode="," horiz-adv-x="260" 
d="M164 114q6 -131 -26 -206l-42 24q10 74 7 182h61z" />
    <glyph glyph-name="hyphen" unicode="-" horiz-adv-x="555" 
d="M458 259h-361v53h361v-53z" />
    <glyph glyph-name="hyphen" unicode="&#x2010;" horiz-adv-x="555" 
d="M458 259h-361v53h361v-53z" />
    <glyph glyph-name="period" unicode="." horiz-adv-x="261" 
d="M162 0h-63v114h63v-114z" />
    <glyph glyph-name="slash" unicode="/" horiz-adv-x="569" 
d="M529 753l-454 -922h-70l454 922h70z" />
    <glyph glyph-name="zero" unicode="0" horiz-adv-x="640" 
d="M587 357q0 -373 -267 -373t-267 373t267 373t267 -373zM519 357q0 314 -199 314t-199 -314q0 -167 53 -244q48 -70 146 -70q199 0 199 314z" />
    <glyph glyph-name="one" unicode="1" horiz-adv-x="640" 
d="M358 0h-65v639l-163 -90l-24 45l205 127h47v-721z" />
    <glyph glyph-name="two" unicode="2" horiz-adv-x="640" 
d="M539 521q0 -63 -36 -115q-32 -45 -109 -105l-138 -104q-75 -68 -85 -139h367l-5 -58h-436v37q0 96 97 184q90 68 181 137q97 81 97 160q0 153 -164 153q-121 0 -180 -96l-45 39q73 116 230 116q101 0 159 -46q67 -54 67 -163z" />
    <glyph glyph-name="three" unicode="3" horiz-adv-x="640" 
d="M530 198q0 -103 -77 -161q-68 -52 -169 -52q-61 0 -98 10q-52 15 -108 59l37 46q46 -35 84 -47q31 -9 82 -9q77 0 127 40q54 44 54 118q0 155 -208 169v47q128 22 170 72q29 34 29 106v62h-336l5 57h392v-110q0 -81 -25 -120q-35 -55 -141 -85q182 -41 182 -202z" />
    <glyph glyph-name="four" unicode="4" horiz-adv-x="640" 
d="M570 183h-106v-183h-65v183h-344l-9 57l364 481h54v-481h24l82 -9v-48zM399 618l-281 -378h281v378z" />
    <glyph glyph-name="five" unicode="5" horiz-adv-x="640" 
d="M539 217q0 -107 -69 -169.5t-177 -62.5q-122 0 -206 82l39 45q69 -68 163 -68q82 0 132.5 46.5t50.5 125.5q0 165 -233 165q-27 0 -64 -2q-59 -4 -59 34q0 9 2 21l58 281h299l-5 -57h-244l-45 -219q29 2 55 2q303 0 303 -224z" />
    <glyph glyph-name="six" unicode="6" horiz-adv-x="640" 
d="M569 223q0 -109 -61 -173.5t-170 -64.5q-130 0 -194 106q-53 86 -53 222q0 198 126 312q115 103 276 94l1 -50q-141 0 -232 -88q-97 -94 -104 -257q59 117 184 117q94 0 154 -47q73 -58 73 -171zM504 223q0 85 -51 129q-44 39 -118 39q-63 0 -111 -40q-44 -37 -64 -98
q22 -209 176 -209q79 0 123.5 47.5t44.5 131.5z" />
    <glyph glyph-name="seven" unicode="7" horiz-adv-x="640" 
d="M545 671l-295 -671h-71l296 658h-397l5 57h450z" />
    <glyph glyph-name="eight" unicode="8" horiz-adv-x="640" 
d="M571 181q0 -87 -60 -139q-66 -57 -192 -57q-119 0 -187 59q-63 55 -63 141q0 75 52 124q40 38 129 72q-147 53 -147 173q0 78 56.5 127t159.5 49q89 0 147 -39q69 -46 69 -135q0 -105 -151 -170q187 -70 187 -205zM474 551q0 67 -50 100q-42 28 -105 28q-75 0 -115 -35
t-40 -93q0 -96 158 -141q77 28 108 54q44 34 44 87zM503 188q0 110 -191 166q-88 -33 -120 -57q-55 -40 -55 -104q0 -66 45 -106q48 -43 137 -43q93 0 141 41q43 38 43 103z" />
    <glyph glyph-name="nine" unicode="9" horiz-adv-x="640" 
d="M557 403q0 -199 -126 -313q-115 -103 -277 -94v50q141 0 232 88q97 94 103 257q-58 -117 -183 -117q-94 0 -154 48q-73 57 -73 170q0 109 61 173.5t170 64.5q129 0 194 -105q53 -87 53 -222zM487 463q-20 208 -175 208q-79 0 -123.5 -47.5t-44.5 -131.5q0 -85 51 -129
q44 -38 118 -38q63 0 109 38t65 100z" />
    <glyph glyph-name="colon" unicode=":" horiz-adv-x="254" 
d="M158 381h-62v114h62v-114zM158 0h-62v114h62v-114z" />
    <glyph glyph-name="semicolon" unicode=";" horiz-adv-x="257" 
d="M163 381h-62v114h62v-114zM163 114q6 -131 -27 -206l-42 24q11 73 8 182h61z" />
    <glyph glyph-name="less" unicode="&#x3c;" horiz-adv-x="472" 
d="M385 101l-41 -42l-257 253l257 254l41 -43l-212 -211z" />
    <glyph glyph-name="equal" unicode="=" horiz-adv-x="645" 
d="M525 415h-404v57h404v-57zM525 207h-404v58h404v-58z" />
    <glyph glyph-name="greater" unicode="&#x3e;" horiz-adv-x="472" 
d="M385 312l-257 -253l-41 42l213 211l-213 211l41 43z" />
    <glyph glyph-name="question" unicode="?" horiz-adv-x="605" 
d="M505 537q0 -65 -53 -124l-98 -94q-53 -56 -53 -113h-59q0 66 51 125l96 92q51 54 51 108q0 69 -39 107q-37 34 -100 34q-119 0 -167 -92l-41 41q61 109 212 109q86 0 139 -44q61 -50 61 -149zM303 0h-62v114h62v-114z" />
    <glyph glyph-name="at" unicode="@" horiz-adv-x="1109" 
d="M955 422q0 -143 -83 -221q-65 -60 -141 -60q-56 0 -71 47q-54 -45 -131 -45q-63 0 -102 36t-39 98q0 134 262 136v21q0 62 -28 85q-21 17 -65 17q-48 0 -96 -17l-13 41q64 23 118 23q138 0 138 -144v-190q0 -59 43 -59q54 0 103 49q65 65 65 183q0 124 -76 203
q-92 95 -275 95q-159 0 -264.5 -105t-105.5 -256q0 -159 102 -260t256 -101q136 0 223 42l12 -38q-93 -40 -235 -40q-171 0 -284 111t-113 286q0 167 116.5 282.5t292.5 115.5q201 0 304 -106q87 -89 87 -229zM650 227v148q-208 0 -208 -97q0 -44 27.5 -69t73.5 -25
q61 0 107 43z" />
    <glyph glyph-name="A" unicode="A" horiz-adv-x="608" 
d="M572 0h-67l-60 230h-287l-59 -230h-63l184 715h166zM433 288l-99 371h-66l-97 -371h262z" />
    <glyph glyph-name="B" unicode="B" horiz-adv-x="636" 
d="M586 206q0 -209 -282 -209q-128 0 -196 3v712q80 18 199 18q243 0 243 -187q0 -97 -91 -158q127 -45 127 -179zM485 536q0 138 -183 138q-72 0 -128 -11v-255h137q50 0 86 -7q88 49 88 135zM517 205q0 148 -209 148h-134v-299q72 -2 126 -2q217 0 217 153z" />
    <glyph glyph-name="C" unicode="C" horiz-adv-x="601" 
d="M578 619l-44 -40q-29 52 -70 72.5t-108 20.5q-103 0 -162 -77q-63 -83 -63 -237q0 -315 230 -315q86 0 155 30l19 -52q-82 -36 -176 -36q-296 0 -296 373q0 186 86 284q78 88 207 88q87 0 139 -27q49 -25 83 -84z" />
    <glyph glyph-name="D" unicode="D" horiz-adv-x="709" 
d="M646 347q0 -181 -97 -272q-84 -80 -229 -80t-212 6v715q97 10 227 10q149 0 228 -93q83 -98 83 -286zM578 347q0 323 -247 323q-82 0 -157 -6v-608q53 -4 144 -4q108 0 174 57q86 75 86 238z" />
    <glyph glyph-name="E" unicode="E" horiz-adv-x="543" 
d="M518 59l-4 -59h-406v715h375v-59h-309v-257h254v-58h-254v-282h344z" />
    <glyph glyph-name="F" unicode="F" horiz-adv-x="528" 
d="M502 715l-5 -59h-323v-257h254v-58h-254v-341h-66v715h394z" />
    <glyph glyph-name="G" unicode="G" horiz-adv-x="662" 
d="M577 619l-44 -40q-29 52 -69.5 72.5t-107.5 20.5q-103 0 -162 -77q-63 -83 -63 -237q0 -315 231 -315q70 0 152 19v222h-171l5 56h226v-322q-110 -33 -214 -33q-139 0 -214 86q-83 95 -83 287q0 186 86 284q78 88 207 88q87 0 139 -27q48 -25 82 -84z" />
    <glyph glyph-name="H" unicode="H" horiz-adv-x="739" 
d="M630 0h-65v341h-391v-341h-66v715h66v-316h391v316h65v-715z" />
    <glyph glyph-name="I" unicode="I" horiz-adv-x="300" 
d="M265 0h-229v51h82v613h-82v51h229v-51h-82v-613h82v-51z" />
    <glyph glyph-name="J" unicode="J" horiz-adv-x="282" 
d="M174 88q0 -129 -60 -186q-53 -48 -165 -53l-10 55q88 6 124 41q45 43 45 152v618h66v-627z" />
    <glyph glyph-name="K" unicode="K" horiz-adv-x="617" 
d="M601 0h-78l-290 335l-11 -12h-48v-323h-66v715h66v-368l346 368h77l-323 -338z" />
    <glyph glyph-name="L" unicode="L" horiz-adv-x="513" 
d="M501 59l-5 -59h-388v715h66v-656h327z" />
    <glyph glyph-name="M" unicode="M" horiz-adv-x="937" 
d="M844 0h-65l-32 613l-259 -517h-54l-249 517l-31 -613h-61l35 715h78l259 -539l269 539h72z" />
    <glyph glyph-name="N" unicode="N" horiz-adv-x="754" 
d="M645 -1h-64l-411 607l1 -606h-63v715h64l411 -609l-1 609h63v-716z" />
    <glyph glyph-name="O" unicode="O" horiz-adv-x="699" 
d="M636 358q0 -187 -76 -282q-73 -91 -210 -91q-287 0 -287 373q0 372 287 372q137 0 210 -90q76 -95 76 -282zM568 358q0 314 -218 314q-219 0 -219 -314t219 -314q218 0 218 314z" />
    <glyph glyph-name="P" unicode="P" horiz-adv-x="618" 
d="M581 511q0 -221 -327 -221h-80v-290h-66v715q123 15 206 15q117 0 188 -52q79 -58 79 -167zM513 511q0 83 -60 126q-53 38 -140 38q-51 0 -139 -10v-321h81q258 0 258 167z" />
    <glyph glyph-name="Q" unicode="Q" horiz-adv-x="699" 
d="M636 358q0 -345 -247 -370q-8 0 -7 -12q8 -72 202 -72l-13 -55q-246 0 -246 122v15q-262 16 -262 372q0 372 287 372q137 0 210 -90q76 -95 76 -282zM568 358q0 314 -218 314q-219 0 -219 -314t219 -314q218 0 218 314z" />
    <glyph glyph-name="R" unicode="R" horiz-adv-x="637" 
d="M584 0h-73l-177 281q-36 -4 -87 -4h-73v-277h-66v715q120 15 198 15q115 0 186 -52q80 -60 80 -173q0 -165 -174 -209zM505 505q0 86 -61 131q-53 39 -139 39q-48 0 -131 -10v-334h77q254 0 254 174z" />
    <glyph glyph-name="S" unicode="S" horiz-adv-x="560" 
d="M504 189q0 -102 -85 -156q-75 -48 -194 -48q-104 0 -182 26l7 56q79 -27 171 -27q99 0 157.5 36.5t58.5 105.5q0 55 -39 93q-33 32 -115 62q-98 36 -129 56q-83 52 -83 149q0 87 63 139q60 49 150 49q68 0 134 -22l-7 -54q-53 19 -117 19q-72 0 -116 -33.5t-44 -95.5
q0 -57 57 -96q35 -25 121 -56t112 -49q80 -55 80 -154z" />
    <glyph glyph-name="T" unicode="T" horiz-adv-x="542" 
d="M529 715l-5 -59h-224v-656h-65v656h-218v59h512z" />
    <glyph glyph-name="U" unicode="U" horiz-adv-x="729" 
d="M620 14q-114 -29 -269 -29q-252 0 -252 253v477h65v-467q0 -104 45.5 -154t146.5 -50q111 0 199 18v653h65v-701z" />
    <glyph glyph-name="V" unicode="V" horiz-adv-x="586" 
d="M573 715l-247 -720h-71l-242 720h69l210 -627l212 627h69z" />
    <glyph glyph-name="W" unicode="W" horiz-adv-x="978" 
d="M964 715l-221 -720h-66l-187 600l-188 -600h-67l-220 720h68l189 -622l191 622h56l191 -621l189 621h65z" />
    <glyph glyph-name="X" unicode="X" horiz-adv-x="627" 
d="M595 715l-245 -353l100 -147l144 -215h-77l-202 303l-67 -101l-137 -202h-79l248 358l-241 357h79l199 -298l62 96l138 202h78z" />
    <glyph glyph-name="Y" unicode="Y" horiz-adv-x="583" 
d="M571 715l-252 -423v-292h-65v288l-242 427h75l202 -360l209 360h73z" />
    <glyph glyph-name="Z" unicode="Z" horiz-adv-x="597" 
d="M552 663l-434 -604h430v-59h-519v43l443 616h-401v56h472z" />
    <glyph glyph-name="bracketleft" unicode="[" horiz-adv-x="345" 
d="M273 -107h-192v920h192v-58h-127v-803h127v-59z" />
    <glyph glyph-name="backslash" unicode="\" horiz-adv-x="521" 
d="M523 -169h-71l-435 884h70z" />
    <glyph glyph-name="bracketright" unicode="]" horiz-adv-x="345" 
d="M264 -107h-192v59h127v803h-127v58h192v-920z" />
    <glyph glyph-name="asciicircum" unicode="^" horiz-adv-x="560" 
d="M472 507l-33 -33l-159 174l-160 -174l-32 33l192 208z" />
    <glyph glyph-name="underscore" unicode="_" horiz-adv-x="538" 
d="M538 -291h-538v48h538v-48z" />
    <glyph glyph-name="grave" unicode="`" horiz-adv-x="486" 
d="M331 599l-45 -17l-120 187l55 21z" />
    <glyph glyph-name="a" unicode="a" horiz-adv-x="515" 
d="M433 0l-53 -2q-4 14 -9 40q-63 -53 -155 -53q-74 0 -120.5 43.5t-46.5 117.5q0 163 315 163v24q0 76 -35 106q-25 21 -79 21q-55 0 -116 -21l-14 47q77 27 142 27q164 0 164 -172v-258q0 -41 7 -83zM364 89v175q-252 3 -252 -117q0 -54 32.5 -84t88.5 -30q80 0 131 56z
" />
    <glyph glyph-name="b" unicode="b" horiz-adv-x="551" 
d="M496 249q0 -130 -69 -200q-63 -64 -167 -64q-91 0 -185 29v702l63 10v-235q70 22 132 22q103 0 163 -64q63 -69 63 -200zM432 249q0 208 -165 208q-59 0 -129 -22v-378q56 -17 121 -17q76 0 122 49q51 55 51 160z" />
    <glyph glyph-name="c" unicode="c" horiz-adv-x="493" 
d="M463 410l-40 -35q-42 83 -137 83q-78 0 -121 -52q-46 -54 -46 -157q0 -99 43 -153q44 -57 129 -57q66 0 128 32l17 -46q-71 -40 -150 -40q-108 0 -167 63q-64 68 -64 201q0 130 66 200q61 64 164 64q127 0 178 -103z" />
    <glyph glyph-name="d" unicode="d" horiz-adv-x="552" 
d="M476 0h-49l-2 37q-64 -52 -143 -52q-100 0 -160 64q-67 70 -67 200t70 200q65 64 178 64q61 0 111 -22v225l62 10v-726zM414 96v338q-48 24 -110 24q-185 0 -185 -209q0 -104 51 -158q44 -47 117 -47q72 0 127 52z" />
    <glyph glyph-name="e" unicode="e" horiz-adv-x="539" 
d="M485 271l-23 -33q-37 -1 -123 -1h-219q0 -198 171 -198q67 0 128 31l17 -46q-72 -39 -150 -39q-118 0 -177 75q-54 68 -54 190q0 129 67 199q61 64 163 64q103 0 155 -67q49 -64 45 -175zM427 284q3 174 -141 174q-71 0 -114 -42q-46 -46 -51 -132h306z" />
    <glyph glyph-name="f" unicode="f" horiz-adv-x="385" 
d="M391 710l-16 -47q-38 14 -94 14q-49 0 -80 -32q-37 -39 -37 -119v-32l191 1v-48l-191 1v-536l-13 -110h-50v646h-82v36l82 7v45q0 103 61 155q47 40 112 40q67 0 117 -21z" />
    <glyph glyph-name="g" unicode="g" horiz-adv-x="547" 
d="M516 557q0 -103 -89 -141q23 -46 23 -111q0 -103 -58 -158q-23 -19 -47 -37q-27 -23 -27 -42q0 -20 36 -45q58 -41 66 -49q36 -34 36 -77q0 -73 -65 -108q-54 -29 -138 -29q-67 0 -102 11l-16 56q50 -15 100 -15q159 0 159 91q0 37 -68.5 81.5t-68.5 77.5q0 18 14 35h-10
q-7 -1 -11 -1q-90 0 -142 51q-57 55 -57 158t57 158q52 50 142 50q108 0 154 -66q57 33 57 108v39h55v-37zM390 305q0 77 -38 117t-102 40q-63 0 -101 -40t-38 -117q0 -78 38 -118t101 -40q64 0 102 40t38 118z" />
    <glyph glyph-name="h" unicode="h" horiz-adv-x="553" 
d="M481 0h-62v282q0 88 -31 130t-103 42q-64 0 -147 -24v-430h-63v716l63 10v-237q89 24 154 24q189 0 189 -212v-301z" />
    <glyph glyph-name="i" unicode="i" horiz-adv-x="213" 
d="M138 612h-63v114h63v-114zM138 0h-63v495h63v-495z" />
    <glyph glyph-name="j" unicode="j" horiz-adv-x="213" 
d="M138 612h-63v114h63v-114zM138 -21q0 -108 -41 -161.5t-132 -57.5l-9 55q65 6 92 42t27 127v511h63v-516z" />
    <glyph glyph-name="k" unicode="k" horiz-adv-x="476" 
d="M459 0h-76l-195 242l-10 -10h-41v-232h-62v716l62 10v-465l238 234h74l-218 -212z" />
    <glyph glyph-name="l" unicode="l" horiz-adv-x="247" 
d="M248 -7q-26 -8 -61 -8q-122 0 -122 148v583l63 10v-591q0 -96 72 -96q20 0 35 3z" />
    <glyph glyph-name="m" unicode="m" horiz-adv-x="884" 
d="M812 0h-62v282q0 88 -31.5 130t-102.5 42q-85 0 -159 -46q19 -43 19 -106v-302h-62v282q0 88 -31 130t-101 42q-65 0 -144 -15v-439h-63v487q117 26 213 26q92 0 138 -53q91 53 196 53q190 0 190 -211v-302z" />
    <glyph glyph-name="n" unicode="n" horiz-adv-x="553" 
d="M481 0h-62v282q0 88 -31 130t-103 42q-66 0 -147 -15v-439h-63v487q117 26 216 26q190 0 190 -211v-302z" />
    <glyph glyph-name="o" unicode="o" horiz-adv-x="563" 
d="M508 249q0 -264 -227 -264q-226 0 -226 264t226 264q227 0 227 -264zM444 249q0 209 -163 209q-162 0 -162 -209t162 -209q163 0 163 209z" />
    <glyph glyph-name="p" unicode="p" horiz-adv-x="552" 
d="M496 249q0 -131 -69 -199q-65 -65 -179 -65q-60 0 -110 22v-247h-63v735h49l4 -40q64 58 148 58q100 0 158 -64q62 -69 62 -200zM433 249q0 105 -48 158q-43 47 -115 47q-76 0 -132 -57v-333q48 -24 109 -24q86 0 134 50q52 54 52 159z" />
    <glyph glyph-name="q" unicode="q" horiz-adv-x="551" 
d="M476 -240h-62v247q-71 -22 -132 -22q-104 0 -163 64q-64 69 -64 199t69 201q64 64 168 64q90 0 184 -29v-724zM414 63v378q-58 17 -122 17q-75 0 -121 -49q-52 -56 -52 -161q0 -106 47 -159q42 -49 118 -49q61 0 130 23z" />
    <glyph glyph-name="r" unicode="r" horiz-adv-x="311" 
d="M304 453q-3 1 -11 1q-106 0 -155 -67v-387h-63v495h51l4 -49q57 65 168 67z" />
    <glyph glyph-name="s" unicode="s" horiz-adv-x="409" 
d="M370 137q0 -82 -68 -122q-53 -30 -132 -30q-70 0 -137 25l7 51q59 -26 126 -26q139 0 139 97q0 31 -29 55q-21 17 -78 42q-62 27 -85 43q-55 38 -55 104q0 62 42.5 99.5t107.5 37.5q62 0 113 -22l-6 -47q-40 18 -98 18q-46 0 -72 -22.5t-26 -60.5q0 -43 59 -75
q45 -18 134 -65q58 -38 58 -102z" />
    <glyph glyph-name="t" unicode="t" horiz-adv-x="368" 
d="M365 1q-48 -16 -103 -16q-67 0 -110 34q-60 47 -60 151v278h-88v36l88 7v144l50 2l10 -143l185 1v-48l-182 1v-271q0 -139 114 -139q41 0 85 13z" />
    <glyph glyph-name="u" unicode="u" horiz-adv-x="553" 
d="M477 8q-98 -23 -213 -23q-192 0 -192 213v297h62v-280q0 -88 31.5 -130t104.5 -42q65 0 145 13v439h62v-487z" />
    <glyph glyph-name="v" unicode="v" horiz-adv-x="499" 
d="M486 495l-209 -500h-60l-204 500h70l167 -423l169 423h67z" />
    <glyph glyph-name="w" unicode="w" horiz-adv-x="796" 
d="M783 495l-178 -500h-61l-146 405l-145 -405h-62l-178 500h67l144 -420l147 420h54l148 -420l143 420h67z" />
    <glyph glyph-name="x" unicode="x" horiz-adv-x="507" 
d="M494 0h-79l-161 207l-44 -57l-117 -150h-80l206 253l-192 242h80l150 -192l33 43l116 149h80l-194 -239l57 -71z" />
    <glyph glyph-name="y" unicode="y" horiz-adv-x="515" 
d="M502 495l-201 -498q-47 -116 -101 -170q-62 -61 -156 -67l-18 56q114 11 177 116q15 25 29 55l-219 508h68l181 -435l171 435h69z" />
    <glyph glyph-name="z" unicode="z" horiz-adv-x="465" 
d="M437 0h-403v43l310 397h-277v55h357q6 -54 6 -43l-312 -397h319v-55z" />
    <glyph glyph-name="braceleft" unicode="{" horiz-adv-x="364" 
d="M292 -107h-24q-187 0 -187 176q0 39 21.5 112.5t21.5 94.5q0 49 -35 62l3 30q32 15 32 62q0 24 -22 97q-21 69 -21 110q0 176 187 176h24v-54h-13q-135 0 -135 -129q0 -37 20 -102.5t20 -94.5q0 -58 -42 -77v-6q42 -20 42 -76q0 -30 -20 -96t-20 -102q0 -130 135 -130h13
v-53z" />
    <glyph glyph-name="bar" unicode="|" horiz-adv-x="485" 
d="M275 -169h-65v884h65v-884z" />
    <glyph glyph-name="braceright" unicode="}" horiz-adv-x="364" 
d="M283 69q0 -176 -187 -176h-24v54h13q135 0 135 129q0 37 -19.5 102.5t-19.5 94.5q0 59 41 77v6q-41 20 -41 76q0 30 19.5 96t19.5 102q0 130 -135 130h-13v53h24q187 0 187 -176q0 -39 -21 -111q-22 -75 -22 -96q0 -49 35 -62l-3 -30q-32 -15 -32 -62q0 -17 23 -97
q20 -69 20 -110z" />
    <glyph glyph-name="asciitilde" unicode="~" horiz-adv-x="587" 
d="M485 369q-6 -48 -40 -76q-30 -25 -73 -25q-41 0 -89 39.5t-78 39.5q-65 0 -71 -61l-45 19q6 47 36.5 74t76.5 27q39 0 87 -40t80 -40q64 0 71 63z" />
    <glyph glyph-name="uni0080" horiz-adv-x="720" 
d="M618 17q-75 -32 -164 -32q-250 0 -289 270h-72l7 44h60q-3 27 -3 59q0 19 2 51h-66l7 44h64q37 277 290 277q89 0 164 -32l-14 -54q-66 28 -149 28q-192 0 -222 -219h323l-11 -44h-318q-2 -32 -2 -51q0 -32 3 -59h290l-11 -44h-273q33 -212 221 -212q83 0 149 28z" />
    <glyph glyph-name="uni0080" unicode="&#x20ac;" horiz-adv-x="720" 
d="M618 17q-75 -32 -164 -32q-250 0 -289 270h-72l7 44h60q-3 27 -3 59q0 19 2 51h-66l7 44h64q37 277 290 277q89 0 164 -32l-14 -54q-66 28 -149 28q-192 0 -222 -219h323l-11 -44h-318q-2 -32 -2 -51q0 -32 3 -59h290l-11 -44h-273q33 -212 221 -212q83 0 149 28z" />
    <glyph glyph-name="uni00A0" unicode="&#xa0;" horiz-adv-x="320" 
 />
    <glyph glyph-name="exclamdown" unicode="&#xa1;" horiz-adv-x="260" 
d="M161 381h-62v114h62v-114zM163 -220h-65v180l8 329h48l8 -329z" />
    <glyph glyph-name="cent" unicode="&#xa2;" horiz-adv-x="493" 
d="M463 410l-40 -35q-42 83 -137 83q-78 0 -121 -52q-46 -54 -46 -157q0 -99 43 -153q44 -57 129 -57q66 0 128 32l17 -46q-60 -33 -127 -38v-78h-50v78q-204 17 -204 262q0 122 58 191q53 63 146 71v78h50v-78q107 -7 154 -101z" />
    <glyph glyph-name="sterling" unicode="&#xa3;" horiz-adv-x="595" 
d="M520 59l-5 -59h-411v59h50q79 52 79 143q0 40 -36 107h-92v53h63q-51 96 -51 159q0 112 77 166q63 43 164 43q92 0 147 -37l-20 -54q-43 33 -123 33q-181 0 -181 -152q0 -54 56 -158h170v-53h-143q27 -56 27 -106q0 -86 -70 -144h299z" />
    <glyph glyph-name="currency" unicode="&#xa4;" horiz-adv-x="720" 
d="M618 17q-75 -32 -164 -32q-250 0 -289 270h-72l7 44h60q-3 27 -3 59q0 19 2 51h-66l7 44h64q37 277 290 277q89 0 164 -32l-14 -54q-66 28 -149 28q-192 0 -222 -219h323l-11 -44h-318q-2 -32 -2 -51q0 -32 3 -59h290l-11 -44h-273q33 -212 221 -212q83 0 149 28z" />
    <glyph glyph-name="yen" unicode="&#xa5;" horiz-adv-x="583" 
d="M571 715l-220 -369h153v-38h-175l-10 -16v-78h185v-39h-185v-175h-65v175h-184v39h184v74l-11 20h-173v38h151l-209 369h76l201 -360l209 360h73z" />
    <glyph glyph-name="brokenbar" unicode="&#xa6;" horiz-adv-x="485" 
d="M275 346h-65v369h65v-369zM275 -169h-65v368h65v-368z" />
    <glyph glyph-name="section" unicode="&#xa7;" horiz-adv-x="589" 
d="M480 345q0 -84 -82 -126q54 -39 54 -101q0 -68 -52 -103q-45 -31 -118 -31q-69 0 -130 25l13 45q57 -19 110 -19q116 0 116 83q0 48 -53 75q-58 22 -117 44q-113 44 -113 130q0 81 82 126q-54 38 -54 100q0 68 52 103q45 31 119 31q69 0 130 -25l-14 -45q-55 19 -109 19
q-116 0 -116 -83q0 -42 39 -66q22 -15 97 -40q71 -24 103 -51q43 -36 43 -91zM421 338q0 50 -58 79q-62 23 -124 47q-71 -27 -71 -91q0 -50 58 -79q62 -23 124 -47q71 27 71 91z" />
    <glyph glyph-name="dieresis" unicode="&#xa8;" horiz-adv-x="486" 
d="M365 638h-57v112h57v-112zM178 638h-57v112h57v-112z" />
    <glyph glyph-name="copyright" unicode="&#xa9;" horiz-adv-x="872" 
d="M809 346q0 -154 -109 -263.5t-264 -109.5q-154 0 -263.5 109.5t-109.5 263.5q0 155 109.5 264t263.5 109q155 0 264 -109t109 -264zM779 346q0 142 -100.5 242t-242.5 100t-242 -100t-100 -242t100 -242t242 -100t242.5 100t100.5 242zM570 478l-30 -28q-19 32 -36 44
q-22 14 -60 14q-54 0 -85 -39q-33 -43 -33 -123q0 -162 121 -162q48 0 86 19l12 -37q-48 -22 -99 -22q-165 0 -165 202q0 101 48 154q43 48 115 48q51 0 81 -20q22 -14 45 -50z" />
    <glyph glyph-name="ordfeminine" unicode="&#xaa;" horiz-adv-x="374" 
d="M292 441l-34 -3q-3 12 -3 21q-33 -26 -81 -26q-41 0 -66.5 23.5t-25.5 64.5q0 87 168 89v13q0 65 -58 65q-24 0 -61 -11l-10 30q43 15 78 15q89 0 89 -94v-142q0 -19 4 -45zM253 286h-124v31h124v-31zM250 491v90q-129 -2 -129 -60q0 -57 62 -57q39 0 67 27z" />
    <glyph glyph-name="guillemotleft" unicode="&#xab;" horiz-adv-x="728" 
d="M645 77l-43 -43l-248 247l248 246l43 -44l-203 -202zM374 77l-43 -43l-248 247l248 246l43 -44l-203 -202z" />
    <glyph glyph-name="logicalnot" unicode="&#xac;" horiz-adv-x="522" 
d="M456 370v-203h-43v146h-345v57h388z" />
    <glyph glyph-name="uni00AD" unicode="&#xad;" horiz-adv-x="623" 
d="M524 316h-424v55h424v-55z" />
    <glyph glyph-name="uni00AD" unicode="&#x2212;" horiz-adv-x="623" 
d="M524 316h-424v55h424v-55z" />
    <glyph glyph-name="registered" unicode="&#xae;" horiz-adv-x="872" 
d="M809 346q0 -154 -109 -263.5t-264 -109.5q-154 0 -263.5 109.5t-109.5 263.5q0 155 109.5 264t263.5 109q155 0 264 -109t109 -264zM779 346q0 142 -100.5 242t-242.5 100t-242 -100t-100 -242t100 -242t242 -100t242.5 100t100.5 242zM584 148h-50l-101 152
q-24 -2 -40 -2h-42v-150h-43v390q63 9 118 9q66 0 105 -29q45 -32 45 -94q0 -92 -100 -114zM531 424q0 85 -106 85q-24 0 -74 -5v-168h44q136 0 136 88z" />
    <glyph glyph-name="macron" unicode="&#xaf;" horiz-adv-x="486" 
d="M373 635h-261v55h261v-55z" />
    <glyph glyph-name="macron" unicode="&#x2c9;" horiz-adv-x="486" 
d="M373 635h-261v55h261v-55z" />
    <glyph glyph-name="degree" unicode="&#xb0;" horiz-adv-x="425" 
d="M342 702q0 -55 -38 -93t-92 -38q-53 0 -91.5 38.5t-38.5 92.5q0 53 38.5 91t91.5 38q54 0 92 -38t38 -91zM315 702q0 42 -30 71.5t-73 29.5q-42 0 -72 -29.5t-30 -71.5q0 -43 30 -73t72 -30q43 0 73 30t30 73z" />
    <glyph glyph-name="plusminus" unicode="&#xb1;" horiz-adv-x="623" 
d="M524 382h-184v-184h-57v184h-183v56h183v184h57v-184h184v-56zM524 69h-424v56h424v-56z" />
    <glyph glyph-name="uni00B2" unicode="&#xb2;" horiz-adv-x="426" 
d="M347 336l-4 -40h-272v29q0 53 60 101q55 38 110 75q60 44 60 88q0 93 -93 93q-76 0 -120 -67l-30 24q55 82 151 82q60 0 95 -31q39 -34 39 -100q0 -45 -36 -83q-23 -24 -81 -62t-77 -57q-26 -26 -30 -52h228z" />
    <glyph glyph-name="uni00B3" unicode="&#xb3;" horiz-adv-x="426" 
d="M332 424q0 -64 -46 -100q-39 -31 -97 -31q-78 0 -131 50l26 29q40 -40 103 -40q43 0 72 25t29 68q0 46 -36 69q-26 17 -62 19v30q89 7 89 98v38h-195l3 38h235v-73q0 -83 -67 -114q77 -28 77 -106z" />
    <glyph glyph-name="acute" unicode="&#xb4;" horiz-adv-x="486" 
d="M331 769l-120 -187l-45 17l110 191z" />
    <glyph glyph-name="uni00B5" unicode="&#xb5;" horiz-adv-x="553" 
d="M481 495v-297q0 -213 -193 -213q-79 0 -150 13v-183h-63v680h63v-439q80 -13 145 -13q72 0 104 42.5t32 129.5v280h62z" />
    <glyph glyph-name="uni00B5" unicode="&#x3bc;" horiz-adv-x="553" 
d="M481 495v-297q0 -213 -193 -213q-79 0 -150 13v-183h-63v680h63v-439q80 -13 145 -13q72 0 104 42.5t32 129.5v280h62z" />
    <glyph glyph-name="paragraph" unicode="&#xb6;" horiz-adv-x="696" 
d="M585 651h-63v-772h-53v772h-127v-772h-53v474q-74 2 -126.5 52.5t-52.5 121.5q0 73 54 124t130 51h291v-51z" />
    <glyph glyph-name="periodcentered" unicode="&#xb7;" horiz-adv-x="261" 
d="M162 231h-63v114h63v-114z" />
    <glyph glyph-name="periodcentered" unicode="&#x2219;" horiz-adv-x="261" 
d="M162 231h-63v114h63v-114z" />
    <glyph glyph-name="cedilla" unicode="&#xb8;" horiz-adv-x="486" 
d="M313 -121q0 -37 -31.5 -59.5t-85.5 -22.5q-35 0 -59 8l1 30q20 -6 47 -6q82 0 82 52q0 33 -36 45q-23 7 -73 7l5 71l33 -2v-42q117 0 117 -81z" />
    <glyph glyph-name="uni00B9" unicode="&#xb9;" horiz-adv-x="426" 
d="M254 296h-42v371l-109 -64l-18 32l137 84h32v-423z" />
    <glyph glyph-name="ordmasculine" unicode="&#xba;" horiz-adv-x="415" 
d="M331 578q0 -145 -124 -145q-123 0 -123 145q0 144 123 144q124 0 124 -144zM269 286h-123v31h123v-31zM291 578q0 108 -84 108t-84 -108q0 -110 84 -110t84 110z" />
    <glyph glyph-name="guillemotright" unicode="&#xbb;" horiz-adv-x="728" 
d="M645 281l-248 -247l-43 43l203 204l-203 202l43 44zM374 281l-248 -247l-43 43l203 204l-203 202l43 44z" />
    <glyph glyph-name="onequarter" unicode="&#xbc;" horiz-adv-x="586" 
d="M328 341h-42v326l-93 -55l-18 32l121 75h32v-378zM516 231h-430v39h430v-39zM430 -118h-65v-92h-42v92h-194l-6 33l206 254h36v-252l65 -3v-32zM323 -82v185l-149 -185h149z" />
    <glyph glyph-name="onehalf" unicode="&#xbd;" horiz-adv-x="586" 
d="M328 341h-42v326l-93 -55l-18 32l121 75h32v-378zM516 231h-430v39h430v-39zM430 -171l-4 -39h-247v27q0 48 53 91q49 34 99 68q53 39 53 77q0 81 -80 81q-65 0 -106 -63l-31 27q50 75 137 75q123 0 123 -120q0 -45 -43 -84q-14 -13 -86 -61q-64 -43 -68 -79h200z" />
    <glyph glyph-name="threequarters" unicode="&#xbe;" horiz-adv-x="586" 
d="M411 455q0 -58 -41 -90q-35 -28 -88 -28q-70 0 -120 46l25 30q38 -38 93 -38q38 0 63.5 21.5t25.5 59.5q0 73 -94 80v31q43 6 62 21q24 19 24 63v31h-175l3 38h213v-67q0 -75 -58 -102q67 -25 67 -96zM516 231h-430v39h430v-39zM430 -118h-65v-92h-42v92h-194l-6 33
l206 254h36v-252l65 -3v-32zM323 -82v185l-149 -185h149z" />
    <glyph glyph-name="questiondown" unicode="&#xbf;" horiz-adv-x="597" 
d="M361 381h-62v114h62v-114zM509 -126q-61 -109 -212 -109q-86 0 -139 44q-61 51 -61 149q0 65 53 124l98 94q53 56 53 113h59q0 -66 -51 -124q-48 -46 -96 -93q-51 -53 -51 -108q0 -69 40 -107q36 -34 99 -34q119 0 167 93z" />
    <glyph glyph-name="Agrave" unicode="&#xc0;" horiz-adv-x="608" 
d="M572 0h-67l-60 230h-287l-59 -230h-63l184 715h166zM433 288l-99 371h-66l-97 -371h262zM384 789l-45 -17l-120 187l55 21z" />
    <glyph glyph-name="Aacute" unicode="&#xc1;" horiz-adv-x="608" 
d="M572 0h-67l-60 230h-287l-59 -230h-63l184 715h166zM433 288l-99 371h-66l-97 -371h262zM386 959l-120 -187l-45 17l110 191z" />
    <glyph glyph-name="Acircumflex" unicode="&#xc2;" horiz-adv-x="608" 
d="M572 0h-67l-60 230h-287l-59 -230h-63l184 715h166zM433 288l-99 371h-66l-97 -371h262zM470 819l-33 -36l-136 136l-137 -136l-32 36l169 170z" />
    <glyph glyph-name="Atilde" unicode="&#xc3;" horiz-adv-x="608" 
d="M572 0h-67l-60 230h-287l-59 -230h-63l184 715h166zM433 288l-99 371h-66l-97 -371h262zM462 846l-41 -24q-6 51 -55 51q-23 0 -65 -33t-76 -33q-81 0 -92 89l42 25q5 -59 58 -59q24 0 65.5 33.5t75.5 33.5q77 0 88 -83z" />
    <glyph glyph-name="Adieresis" unicode="&#xc4;" horiz-adv-x="608" 
d="M572 0h-67l-60 230h-287l-59 -230h-63l184 715h166zM433 288l-99 371h-66l-97 -371h262zM424 811h-57v112h57v-112zM237 811h-57v112h57v-112z" />
    <glyph glyph-name="Aring" unicode="&#xc5;" horiz-adv-x="608" 
d="M572 0h-67l-60 230h-287l-59 -230h-63l184 715h166zM433 288l-99 371h-66l-97 -371h262zM381 866q0 -34 -24 -58t-58 -24t-58 24t-24 58t24 57.5t58 23.5t58 -23.5t24 -57.5zM354 866q0 22 -16 38t-39 16t-39 -16t-16 -38q0 -23 16 -39t39 -16t39 16t16 39z" />
    <glyph glyph-name="AE" unicode="&#xc6;" horiz-adv-x="946" 
d="M921 59l-4 -59h-406v230h-287l-119 -230h-69l370 715h480v-59h-310v-257h255v-58h-255v-282h345zM511 288v371h-68l-194 -371h262z" />
    <glyph glyph-name="Ccedilla" unicode="&#xc7;" horiz-adv-x="616" 
d="M556 619l-44 -40q-28 51 -69 72t-108 21q-103 0 -163 -77q-63 -83 -63 -237q0 -315 230 -315q86 0 155 30l19 -52q-77 -34 -169 -36v-25q118 0 118 -81q0 -37 -31.5 -59.5t-86.5 -22.5q-34 0 -59 8l1 30q20 -6 47 -6q82 0 82 52q0 33 -36 45q-23 7 -73 7l4 53
q-268 18 -268 372q0 186 86 284q78 88 207 88q86 0 138 -27q49 -25 83 -84z" />
    <glyph glyph-name="Egrave" unicode="&#xc8;" horiz-adv-x="543" 
d="M518 59l-4 -59h-406v715h375v-59h-309v-257h254v-58h-254v-282h344zM373 789l-45 -17l-120 187l55 21z" />
    <glyph glyph-name="Eacute" unicode="&#xc9;" horiz-adv-x="543" 
d="M518 59l-4 -59h-406v715h375v-59h-309v-257h254v-58h-254v-282h344zM392 959l-120 -187l-45 17l110 191z" />
    <glyph glyph-name="Ecircumflex" unicode="&#xca;" horiz-adv-x="543" 
d="M518 59l-4 -59h-406v715h375v-59h-309v-257h254v-58h-254v-282h344zM461 819l-33 -36l-136 136l-137 -136l-32 36l169 170z" />
    <glyph glyph-name="Edieresis" unicode="&#xcb;" horiz-adv-x="543" 
d="M518 59l-4 -59h-406v715h375v-59h-309v-257h254v-58h-254v-282h344zM406 814h-57v112h57v-112zM219 814h-57v112h57v-112z" />
    <glyph glyph-name="Igrave" unicode="&#xcc;" horiz-adv-x="300" 
d="M265 0h-229v51h82v613h-82v51h229v-51h-82v-613h82v-51zM232 789l-45 -17l-120 187l55 21z" />
    <glyph glyph-name="Iacute" unicode="&#xcd;" horiz-adv-x="300" 
d="M265 0h-229v51h82v613h-82v51h229v-51h-82v-613h82v-51zM244 959l-120 -187l-45 17l110 191z" />
    <glyph glyph-name="Icircumflex" unicode="&#xce;" horiz-adv-x="300" 
d="M265 0h-229v51h82v613h-82v51h229v-51h-82v-613h82v-51zM321 819l-33 -36l-136 136l-137 -136l-32 36l169 170z" />
    <glyph glyph-name="Idieresis" unicode="&#xcf;" horiz-adv-x="300" 
d="M265 0h-229v51h82v613h-82v51h229v-51h-82v-613h82v-51zM274 815h-57v112h57v-112zM87 815h-57v112h57v-112z" />
    <glyph glyph-name="Eth" unicode="&#xd0;" horiz-adv-x="709" 
d="M646 347q0 -181 -97 -272q-84 -80 -229 -80t-212 6v340h-105v57h105v318q97 10 227 10q149 0 228 -93q83 -98 83 -286zM578 347q0 323 -247 323q-82 0 -157 -6v-266h165v-57h-165v-285q53 -4 144 -4q114 0 180 61q80 75 80 234z" />
    <glyph glyph-name="Ntilde" unicode="&#xd1;" horiz-adv-x="754" 
d="M645 -1h-64l-411 607l1 -606h-63v715h64l411 -609l-1 609h63v-716zM538 846l-41 -24q-6 51 -55 51q-23 0 -65 -33t-76 -33q-81 0 -92 89l42 25q5 -59 58 -59q24 0 65.5 33.5t75.5 33.5q77 0 88 -83z" />
    <glyph glyph-name="Ograve" unicode="&#xd2;" horiz-adv-x="699" 
d="M636 358q0 -187 -76 -282q-73 -91 -210 -91q-287 0 -287 373q0 372 287 372q137 0 210 -90q76 -95 76 -282zM568 358q0 314 -218 314q-219 0 -219 -314t219 -314q218 0 218 314zM431 789l-45 -17l-120 187l55 21z" />
    <glyph glyph-name="Oacute" unicode="&#xd3;" horiz-adv-x="699" 
d="M636 358q0 -187 -76 -282q-73 -91 -210 -91q-287 0 -287 373q0 372 287 372q137 0 210 -90q76 -95 76 -282zM568 358q0 314 -218 314q-219 0 -219 -314t219 -314q218 0 218 314zM435 959l-120 -187l-45 17l110 191z" />
    <glyph glyph-name="Ocircumflex" unicode="&#xd4;" horiz-adv-x="699" 
d="M636 358q0 -187 -76 -282q-73 -91 -210 -91q-287 0 -287 373q0 372 287 372q137 0 210 -90q76 -95 76 -282zM568 358q0 314 -218 314q-219 0 -219 -314t219 -314q218 0 218 314zM518 819l-33 -36l-136 136l-137 -136l-32 36l169 170z" />
    <glyph glyph-name="Otilde" unicode="&#xd5;" horiz-adv-x="699" 
d="M636 358q0 -187 -76 -282q-73 -91 -210 -91q-287 0 -287 373q0 372 287 372q137 0 210 -90q76 -95 76 -282zM568 358q0 314 -218 314q-219 0 -219 -314t219 -314q218 0 218 314zM518 846l-41 -24q-6 51 -55 51q-23 0 -65 -33t-76 -33q-81 0 -92 89l42 25q5 -59 58 -59
q24 0 65.5 33.5t75.5 33.5q77 0 88 -83z" />
    <glyph glyph-name="Odieresis" unicode="&#xd6;" horiz-adv-x="699" 
d="M636 358q0 -187 -76 -282q-73 -91 -210 -91q-287 0 -287 373q0 372 287 372q137 0 210 -90q76 -95 76 -282zM568 358q0 314 -218 314q-219 0 -219 -314t219 -314q218 0 218 314zM475 811h-57v112h57v-112zM288 811h-57v112h57v-112z" />
    <glyph glyph-name="multiply" unicode="&#xd7;" horiz-adv-x="623" 
d="M482 214l-41 -41l-130 130l-130 -129l-39 39l130 130l-131 130l41 40l130 -130l130 130l39 -39l-130 -130z" />
    <glyph glyph-name="Oslash" unicode="&#xd8;" horiz-adv-x="699" 
d="M635 358q0 -187 -76 -282q-72 -91 -209 -91q-114 0 -183 62l-44 -63l-44 30l51 73q-67 97 -67 271q0 372 287 372q114 0 183 -62l44 63l44 -30l-52 -74q66 -94 66 -269zM496 614q-54 57 -146 57q-219 0 -219 -313q0 -135 40 -212zM568 358q0 133 -40 210l-324 -468
q53 -56 146 -56q218 0 218 314z" />
    <glyph glyph-name="Ugrave" unicode="&#xd9;" horiz-adv-x="718" 
d="M620 14q-114 -29 -269 -29q-252 0 -252 253v477h65v-467q0 -104 45.5 -154t146.5 -50q111 0 199 18v653h65v-701zM437 789l-45 -17l-120 187l55 21z" />
    <glyph glyph-name="Uacute" unicode="&#xda;" horiz-adv-x="718" 
d="M620 14q-114 -29 -269 -29q-252 0 -252 253v477h65v-467q0 -104 45.5 -154t146.5 -50q111 0 199 18v653h65v-701zM445 959l-120 -187l-45 17l110 191z" />
    <glyph glyph-name="Ucircumflex" unicode="&#xdb;" horiz-adv-x="718" 
d="M620 14q-114 -29 -269 -29q-252 0 -252 253v477h65v-467q0 -104 45.5 -154t146.5 -50q111 0 199 18v653h65v-701zM530 819l-33 -36l-136 136l-137 -136l-32 36l169 170z" />
    <glyph glyph-name="Udieresis" unicode="&#xdc;" horiz-adv-x="718" 
d="M620 14q-114 -29 -269 -29q-252 0 -252 253v477h65v-467q0 -104 45.5 -154t146.5 -50q111 0 199 18v653h65v-701zM482 811h-57v112h57v-112zM295 811h-57v112h57v-112z" />
    <glyph glyph-name="Yacute" unicode="&#xdd;" horiz-adv-x="583" 
d="M571 715l-252 -423v-292h-65v288l-242 427h75l202 -360l209 360h73zM387 952l-120 -187l-45 17l110 191z" />
    <glyph glyph-name="Thorn" unicode="&#xde;" horiz-adv-x="618" 
d="M581 350q0 -222 -327 -222h-80v-279h-66v866h66v-155q79 9 140 9q117 0 188 -52q79 -58 79 -167zM513 350q0 83 -60 126q-53 38 -140 38q-51 0 -139 -10v-321h81q258 0 258 167z" />
    <glyph glyph-name="germandbls" unicode="&#xdf;" horiz-adv-x="551" 
d="M495 167q0 -96 -69 -145q-63 -45 -176 -45q-53 0 -83 5v54q28 -6 82 -6q84 0 133.5 36t49.5 106q0 71 -59 120q-66 54 -198 71l6 36q230 11 230 144q0 57 -40 91q-36 30 -88 30q-145 0 -145 -155v-635h-63v637q0 113 66 166q54 42 143 42q82 0 134.5 -47t52.5 -120
q0 -141 -176 -174q200 -51 200 -211z" />
    <glyph glyph-name="agrave" unicode="&#xe0;" horiz-adv-x="515" 
d="M433 0l-53 -2q-4 14 -9 40q-63 -53 -155 -53q-74 0 -120.5 43.5t-46.5 117.5q0 163 315 163v24q0 76 -35 106q-25 21 -79 21q-55 0 -116 -21l-14 47q77 27 142 27q164 0 164 -172v-258q0 -41 7 -83zM364 89v175q-252 3 -252 -117q0 -54 32.5 -84t88.5 -30q80 0 131 56z
M338 599l-45 -17l-120 187l55 21z" />
    <glyph glyph-name="aacute" unicode="&#xe1;" horiz-adv-x="515" 
d="M433 0l-53 -2q-4 14 -9 40q-63 -53 -155 -53q-74 0 -120.5 43.5t-46.5 117.5q0 163 315 163v24q0 76 -35 106q-25 21 -79 21q-55 0 -116 -21l-14 47q77 27 142 27q164 0 164 -172v-258q0 -41 7 -83zM364 89v175q-252 3 -252 -117q0 -54 32.5 -84t88.5 -30q80 0 131 56z
M349 769l-120 -187l-45 17l110 191z" />
    <glyph glyph-name="acircumflex" unicode="&#xe2;" horiz-adv-x="515" 
d="M433 0l-53 -2q-4 14 -9 40q-63 -53 -155 -53q-74 0 -120.5 43.5t-46.5 117.5q0 163 315 163v24q0 76 -35 106q-25 21 -79 21q-55 0 -116 -21l-14 47q77 27 142 27q164 0 164 -172v-258q0 -41 7 -83zM364 89v175q-252 3 -252 -117q0 -54 32.5 -84t88.5 -30q80 0 131 56z
M426 626l-33 -36l-136 136l-137 -136l-32 36l169 170z" />
    <glyph glyph-name="atilde" unicode="&#xe3;" horiz-adv-x="515" 
d="M433 0l-53 -2q-4 14 -9 40q-63 -53 -155 -53q-74 0 -120.5 43.5t-46.5 117.5q0 163 315 163v24q0 76 -35 106q-25 21 -79 21q-55 0 -116 -21l-14 47q77 27 142 27q164 0 164 -172v-258q0 -41 7 -83zM364 89v175q-252 3 -252 -117q0 -54 32.5 -84t88.5 -30q80 0 131 56z
M422 656l-41 -24q-6 51 -55 51q-23 0 -65 -33t-76 -33q-81 0 -92 89l42 25q5 -59 58 -59q24 0 65.5 33.5t75.5 33.5q77 0 88 -83z" />
    <glyph glyph-name="adieresis" unicode="&#xe4;" horiz-adv-x="515" 
d="M433 0l-53 -2q-4 14 -9 40q-63 -53 -155 -53q-74 0 -120.5 43.5t-46.5 117.5q0 163 315 163v24q0 76 -35 106q-25 21 -79 21q-55 0 -116 -21l-14 47q77 27 142 27q164 0 164 -172v-258q0 -41 7 -83zM364 89v175q-252 3 -252 -117q0 -54 32.5 -84t88.5 -30q80 0 131 56z
M379 638h-57v112h57v-112zM192 638h-57v112h57v-112z" />
    <glyph glyph-name="aring" unicode="&#xe5;" horiz-adv-x="515" 
d="M433 0l-53 -2q-4 14 -9 40q-63 -53 -155 -53q-74 0 -120.5 43.5t-46.5 117.5q0 163 315 163v24q0 76 -35 106q-25 21 -79 21q-55 0 -116 -21l-14 47q77 27 142 27q164 0 164 -172v-258q0 -41 7 -83zM364 89v175q-252 3 -252 -117q0 -54 32.5 -84t88.5 -30q80 0 131 56z
M343 673q0 -34 -24 -58t-58 -24t-58 24t-24 58t24 57.5t58 23.5t58 -23.5t24 -57.5zM316 673q0 22 -16 38t-39 16t-39 -16t-16 -38q0 -23 16 -39t39 -16t39 16t16 39z" />
    <glyph glyph-name="ae" unicode="&#xe6;" horiz-adv-x="847" 
d="M793 271l-23 -32q-37 -2 -123 -2h-219v-4q0 -194 171 -194q66 0 127 31l18 -45q-71 -40 -150 -40q-129 0 -187 89q-69 -89 -191 -89q-74 0 -120.5 43.5t-46.5 117.5q0 163 315 163v24q0 76 -35 106q-25 21 -79 21q-55 0 -116 -21l-14 47q77 27 142 27q118 0 151 -86
q61 86 180 86q103 0 155 -67q49 -64 45 -175zM735 284q3 174 -141 174q-70 0 -113 -42q-46 -46 -52 -132h306zM386 114q-22 54 -22 135v15q-252 2 -252 -117q0 -54 32.5 -84t88.5 -30q99 0 153 81z" />
    <glyph glyph-name="ccedilla" unicode="&#xe7;" horiz-adv-x="493" 
d="M463 410l-40 -35q-42 83 -137 83q-78 0 -121 -52q-46 -54 -46 -157q0 -99 43 -153q44 -57 129 -57q66 0 128 32l17 -46q-66 -36 -141 -40v-25q117 0 117 -81q0 -37 -31 -59.5t-86 -22.5q-34 0 -59 8l1 30q20 -6 47 -6q82 0 82 52q0 33 -36 45q-23 7 -73 7l4 53
q-206 15 -206 263q0 130 66 200q61 64 164 64q127 0 178 -103z" />
    <glyph glyph-name="egrave" unicode="&#xe8;" horiz-adv-x="539" 
d="M485 271l-23 -33q-37 -1 -123 -1h-219q0 -198 171 -198q67 0 128 31l17 -46q-72 -39 -150 -39q-118 0 -177 75q-54 68 -54 190q0 129 67 199q61 64 163 64q103 0 155 -67q49 -64 45 -175zM427 284q3 174 -141 174q-71 0 -114 -42q-46 -46 -51 -132h306zM367 599l-45 -17
l-120 187l55 21z" />
    <glyph glyph-name="eacute" unicode="&#xe9;" horiz-adv-x="539" 
d="M485 271l-23 -33q-37 -1 -123 -1h-219q0 -198 171 -198q67 0 128 31l17 -46q-72 -39 -150 -39q-118 0 -177 75q-54 68 -54 190q0 129 67 199q61 64 163 64q103 0 155 -67q49 -64 45 -175zM427 284q3 174 -141 174q-71 0 -114 -42q-46 -46 -51 -132h306zM361 769
l-120 -187l-45 17l110 191z" />
    <glyph glyph-name="ecircumflex" unicode="&#xea;" horiz-adv-x="539" 
d="M485 271l-23 -33q-37 -1 -123 -1h-219q0 -198 171 -198q67 0 128 31l17 -46q-72 -39 -150 -39q-118 0 -177 75q-54 68 -54 190q0 129 67 199q61 64 163 64q103 0 155 -67q49 -64 45 -175zM427 284q3 174 -141 174q-71 0 -114 -42q-46 -46 -51 -132h306zM449 626l-33 -36
l-136 136l-137 -136l-32 36l169 170z" />
    <glyph glyph-name="edieresis" unicode="&#xeb;" horiz-adv-x="539" 
d="M485 271l-23 -33q-37 -1 -123 -1h-219q0 -198 171 -198q67 0 128 31l17 -46q-72 -39 -150 -39q-118 0 -177 75q-54 68 -54 190q0 129 67 199q61 64 163 64q103 0 155 -67q49 -64 45 -175zM427 284q3 174 -141 174q-71 0 -114 -42q-46 -46 -51 -132h306zM400 638h-57v112
h57v-112zM213 638h-57v112h57v-112z" />
    <glyph glyph-name="igrave" unicode="&#xec;" horiz-adv-x="213" 
d="M138 0h-63v495h63v-495zM197 599l-45 -17l-120 187l55 21z" />
    <glyph glyph-name="iacute" unicode="&#xed;" horiz-adv-x="213" 
d="M138 0h-63v495h63v-495zM198 769l-120 -187l-45 17l110 191z" />
    <glyph glyph-name="icircumflex" unicode="&#xee;" horiz-adv-x="213" 
d="M138 0h-63v495h63v-495zM277 626l-33 -36l-136 136l-137 -136l-32 36l169 170z" />
    <glyph glyph-name="idieresis" unicode="&#xef;" horiz-adv-x="213" 
d="M138 0h-63v495h63v-495zM230 638h-57v112h57v-112zM43 638h-57v112h57v-112z" />
    <glyph glyph-name="eth" unicode="&#xf0;" horiz-adv-x="551" 
d="M506 235q0 -115 -63 -182.5t-162 -67.5q-100 0 -163.5 64.5t-63.5 167.5q0 118 100 187q81 56 202 67q-47 63 -117 118l-59 -72l-35 27l57 69q-50 34 -93 56l27 52q58 -30 102 -61l52 64l35 -27l-50 -61q231 -177 231 -401zM445 235q0 95 -57 189q-109 -5 -184 -53
q-89 -56 -89 -151q0 -79 46 -128.5t120 -49.5q73 0 118.5 51.5t45.5 141.5z" />
    <glyph glyph-name="ntilde" unicode="&#xf1;" horiz-adv-x="553" 
d="M481 0h-62v282q0 88 -31 130t-103 42q-66 0 -147 -15v-439h-63v487q117 26 216 26q190 0 190 -211v-302zM442 656l-41 -24q-6 51 -55 51q-23 0 -65 -33t-76 -33q-81 0 -92 89l42 25q5 -59 58 -59q24 0 65.5 33.5t75.5 33.5q77 0 88 -83z" />
    <glyph glyph-name="ograve" unicode="&#xf2;" horiz-adv-x="563" 
d="M508 249q0 -264 -227 -264q-226 0 -226 264t226 264q227 0 227 -264zM444 249q0 209 -163 209q-162 0 -162 -209t162 -209q163 0 163 209zM367 599l-45 -17l-120 187l55 21z" />
    <glyph glyph-name="oacute" unicode="&#xf3;" horiz-adv-x="563" 
d="M508 249q0 -264 -227 -264q-226 0 -226 264t226 264q227 0 227 -264zM444 249q0 209 -163 209q-162 0 -162 -209t162 -209q163 0 163 209zM366 769l-120 -187l-45 17l110 191z" />
    <glyph glyph-name="ocircumflex" unicode="&#xf4;" horiz-adv-x="563" 
d="M508 249q0 -264 -227 -264q-226 0 -226 264t226 264q227 0 227 -264zM444 249q0 209 -163 209q-162 0 -162 -209t162 -209q163 0 163 209zM448 626l-33 -36l-136 136l-137 -136l-32 36l169 170z" />
    <glyph glyph-name="otilde" unicode="&#xf5;" horiz-adv-x="563" 
d="M508 249q0 -264 -227 -264q-226 0 -226 264t226 264q227 0 227 -264zM444 249q0 209 -163 209q-162 0 -162 -209t162 -209q163 0 163 209zM445 656l-41 -24q-6 51 -55 51q-23 0 -65 -33t-76 -33q-81 0 -92 89l42 25q5 -59 58 -59q24 0 65.5 33.5t75.5 33.5q77 0 88 -83z
" />
    <glyph glyph-name="odieresis" unicode="&#xf6;" horiz-adv-x="563" 
d="M508 249q0 -264 -227 -264q-226 0 -226 264t226 264q227 0 227 -264zM444 249q0 209 -163 209q-162 0 -162 -209t162 -209q163 0 163 209zM403 638h-57v112h57v-112zM216 638h-57v112h57v-112z" />
    <glyph glyph-name="divide" unicode="&#xf7;" horiz-adv-x="665" 
d="M361 468h-57v113h57v-113zM554 315h-443v55h443v-55zM361 103h-57v113h57v-113z" />
    <glyph glyph-name="oslash" unicode="&#xf8;" horiz-adv-x="563" 
d="M508 249q0 -264 -227 -264q-88 0 -141 41l-35 -47l-34 27l38 50q-54 66 -54 193q0 264 226 264q88 0 143 -42l38 50l34 -26l-41 -54q53 -67 53 -192zM388 423q-39 35 -107 35q-162 0 -162 -209q0 -90 29 -142zM444 249q0 90 -29 140l-239 -316q39 -33 105 -33
q163 0 163 209z" />
    <glyph glyph-name="ugrave" unicode="&#xf9;" horiz-adv-x="553" 
d="M477 8q-98 -23 -213 -23q-192 0 -192 213v297h62v-280q0 -88 31.5 -130t104.5 -42q65 0 145 13v439h62v-487zM367 599l-45 -17l-120 187l55 21z" />
    <glyph glyph-name="uacute" unicode="&#xfa;" horiz-adv-x="553" 
d="M477 8q-98 -23 -213 -23q-192 0 -192 213v297h62v-280q0 -88 31.5 -130t104.5 -42q65 0 145 13v439h62v-487zM381 769l-120 -187l-45 17l110 191z" />
    <glyph glyph-name="ucircumflex" unicode="&#xfb;" horiz-adv-x="553" 
d="M477 8q-98 -23 -213 -23q-192 0 -192 213v297h62v-280q0 -88 31.5 -130t104.5 -42q65 0 145 13v439h62v-487zM451 626l-33 -36l-136 136l-137 -136l-32 36l169 170z" />
    <glyph glyph-name="udieresis" unicode="&#xfc;" horiz-adv-x="553" 
d="M477 8q-98 -23 -213 -23q-192 0 -192 213v297h62v-280q0 -88 31.5 -130t104.5 -42q65 0 145 13v439h62v-487zM407 638h-57v112h57v-112zM220 638h-57v112h57v-112z" />
    <glyph glyph-name="yacute" unicode="&#xfd;" horiz-adv-x="515" 
d="M502 495l-201 -498q-47 -116 -101 -170q-62 -61 -156 -67l-18 56q114 11 177 116q15 25 29 55l-219 508h68l181 -435l171 435h69zM357 769l-120 -187l-45 17l110 191z" />
    <glyph glyph-name="thorn" unicode="&#xfe;" horiz-adv-x="552" 
d="M496 249q0 -131 -69 -199q-65 -65 -179 -65q-60 0 -110 22v-247h-63v946h63v-245q60 52 138 52q100 0 158 -64q62 -69 62 -200zM433 249q0 105 -48 158q-43 47 -115 47q-76 0 -132 -57v-332q47 -25 107 -25q188 0 188 209z" />
    <glyph glyph-name="ydieresis" unicode="&#xff;" horiz-adv-x="515" 
d="M502 495l-201 -498q-47 -116 -101 -170q-62 -61 -156 -67l-18 56q114 11 177 116q15 25 29 55l-219 508h68l181 -435l171 435h69zM393 638h-57v112h57v-112zM206 638h-57v112h57v-112z" />
    <glyph glyph-name="dotlessi" unicode="&#x131;" horiz-adv-x="213" 
d="M138 0h-63v495h63v-495z" />
    <glyph glyph-name="Lslash" unicode="&#x141;" horiz-adv-x="513" 
d="M501 59l-5 -59h-388v247l-90 -44l-25 53l115 55v404h66v-373l146 70l25 -53l-171 -82v-218h327z" />
    <glyph glyph-name="lslash" unicode="&#x142;" horiz-adv-x="300" 
d="M280 377l-97 -46v-280h82v-51h-229v51h82v250l-79 -38l-24 52l103 49v300h-82v51h229v-51h-82v-269l73 35z" />
    <glyph glyph-name="OE" unicode="&#x152;" horiz-adv-x="1004" 
d="M979 59l-5 -59h-405v136q-54 -151 -219 -151q-287 0 -287 373q0 372 287 372q165 0 219 -151v136h375v-59h-310v-257h255v-58h-255v-282h345zM568 358q0 314 -218 314q-219 0 -219 -314t219 -314q218 0 218 314z" />
    <glyph glyph-name="oe" unicode="&#x153;" horiz-adv-x="928" 
d="M873 271l-22 -32q-38 -2 -124 -2h-218v-4q0 -194 171 -194q66 0 127 31l18 -45q-71 -40 -150 -40q-154 0 -199 132q-43 -132 -195 -132q-226 0 -226 264t226 264q153 0 196 -134q49 134 197 134q102 0 154 -67q49 -64 45 -175zM816 284q3 174 -141 174q-71 0 -114 -42
q-46 -46 -52 -132h307zM444 249q0 209 -163 209q-162 0 -162 -209t162 -209q163 0 163 209z" />
    <glyph glyph-name="Scaron" unicode="&#x160;" horiz-adv-x="560" 
d="M504 189q0 -102 -85 -156q-75 -48 -194 -48q-104 0 -182 26l7 56q79 -27 171 -27q99 0 157.5 36.5t58.5 105.5q0 55 -39 93q-33 32 -115 62q-98 36 -129 56q-83 52 -83 149q0 87 63 139q60 49 150 49q68 0 134 -22l-7 -54q-53 19 -117 19q-72 0 -116 -33.5t-44 -95.5
q0 -57 57 -96q35 -25 121 -56t112 -49q80 -55 80 -154zM450 956l-169 -170l-169 170l32 35l137 -136l137 136z" />
    <glyph glyph-name="scaron" unicode="&#x161;" horiz-adv-x="419" 
d="M370 137q0 -82 -68 -122q-53 -30 -132 -30q-70 0 -137 25l7 51q59 -26 126 -26q139 0 139 97q0 31 -29 55q-21 17 -78 42q-62 27 -85 43q-55 38 -55 104q0 62 42.5 99.5t107.5 37.5q62 0 113 -22l-6 -47q-40 18 -98 18q-46 0 -72 -22.5t-26 -60.5q0 -43 59 -75
q45 -18 134 -65q58 -38 58 -102zM380 745l-169 -170l-169 170l32 35l137 -135l136 135z" />
    <glyph glyph-name="Ydieresis" unicode="&#x178;" horiz-adv-x="583" 
d="M571 715l-252 -423v-292h-65v288l-242 427h75l202 -360l209 360h73zM402 801h-57v112h57v-112zM215 801h-57v112h57v-112z" />
    <glyph glyph-name="Zcaron" unicode="&#x17d;" horiz-adv-x="597" 
d="M552 663l-434 -604h430v-59h-519v43l443 616h-401v56h472zM477 956l-169 -170l-169 170l32 35l137 -135l136 135z" />
    <glyph glyph-name="zcaron" unicode="&#x17e;" horiz-adv-x="465" 
d="M437 0h-403v43l310 397h-277v55h357q6 -54 6 -43l-312 -397h319v-55zM416 745l-169 -170l-169 170l32 35l137 -135l136 135z" />
    <glyph glyph-name="florin" unicode="&#x192;" horiz-adv-x="462" 
d="M460 710l-22 -47q-37 14 -93 14q-50 0 -84 -32q-43 -39 -50 -119l-3 -32l191 1l-5 -48l-191 1l-60 -536l-25 -110h-50l72 646h-82l4 36l83 7l5 45q11 103 78 155q52 40 117 40q66 0 115 -21z" />
    <glyph glyph-name="circumflex" unicode="&#x2c6;" horiz-adv-x="486" 
d="M412 626l-33 -36l-136 136l-137 -136l-32 36l169 170z" />
    <glyph glyph-name="caron" unicode="&#x2c7;" horiz-adv-x="486" 
d="M412 745l-169 -170l-169 170l32 35l137 -135l136 135z" />
    <glyph glyph-name="breve" unicode="&#x2d8;" horiz-adv-x="486" 
d="M399 710q-59 -105 -156 -105t-156 105l49 27q43 -75 107 -75t107 75z" />
    <glyph glyph-name="dotaccent" unicode="&#x2d9;" horiz-adv-x="486" 
d="M275 599h-64v119h64v-119z" />
    <glyph glyph-name="ring" unicode="&#x2da;" horiz-adv-x="486" 
d="M325 673q0 -34 -24 -58t-58 -24t-58 24t-24 58t24 57.5t58 23.5t58 -23.5t24 -57.5zM298 673q0 22 -16 38t-39 16t-39 -16t-16 -38q0 -23 16 -39t39 -16t39 16t16 39z" />
    <glyph glyph-name="ogonek" unicode="&#x2db;" horiz-adv-x="486" 
d="M328 -192q-27 -7 -59 -7q-69 0 -108 30.5t-39 87.5q0 15 3 32l10 55h42l-7 -51q-1 -10 -1 -20q0 -86 108 -86q23 0 51 7v-48z" />
    <glyph glyph-name="tilde" unicode="&#x2dc;" horiz-adv-x="486" 
d="M407 656l-41 -24q-6 51 -55 51q-23 0 -65 -33t-76 -33q-81 0 -92 89l42 25q5 -59 58 -59q24 0 65.5 33.5t75.5 33.5q77 0 88 -83z" />
    <glyph glyph-name="hungarumlaut" unicode="&#x2dd;" horiz-adv-x="486" 
d="M421 734l-121 -174l-44 29l119 175zM230 734l-120 -175l-45 29l119 175z" />
    <glyph glyph-name="Delta" unicode="&#x394;" 
 />
    <glyph glyph-name="Delta" unicode="&#x2206;" 
 />
    <glyph glyph-name="Omega" unicode="&#x3a9;" 
 />
    <glyph glyph-name="Omega" unicode="&#x2126;" 
 />
    <glyph glyph-name="pi" unicode="&#x3c0;" 
 />
    <glyph glyph-name="endash" unicode="&#x2013;" horiz-adv-x="434" 
d="M434 259h-434v53h434v-53z" />
    <glyph glyph-name="emdash" unicode="&#x2014;" horiz-adv-x="868" 
d="M868 259h-868v53h868v-53z" />
    <glyph glyph-name="quoteleft" unicode="&#x2018;" horiz-adv-x="220" 
d="M145 693q-10 -86 -7 -210h-63q-4 155 27 235z" />
    <glyph glyph-name="quoteright" unicode="&#x2019;" horiz-adv-x="220" 
d="M145 707q4 -155 -27 -235l-43 25q10 86 7 210h63z" />
    <glyph glyph-name="quotesinglbase" unicode="&#x201a;" horiz-adv-x="220" 
d="M145 119q4 -155 -27 -235l-43 25q10 86 7 210h63z" />
    <glyph glyph-name="quotedblleft" unicode="&#x201c;" horiz-adv-x="378" 
d="M303 693q-10 -73 -8 -210h-62q-4 155 27 235zM145 693q-10 -86 -7 -210h-63q-4 155 27 235z" />
    <glyph glyph-name="quotedblright" unicode="&#x201d;" horiz-adv-x="378" 
d="M303 707q4 -155 -27 -235l-43 25q10 86 7 210h63zM145 707q4 -155 -27 -235l-43 25q10 86 7 210h63z" />
    <glyph glyph-name="quotedblbase" unicode="&#x201e;" horiz-adv-x="378" 
d="M303 119q4 -155 -27 -235l-43 25q10 86 7 210h63zM145 119q4 -155 -27 -235l-43 25q10 86 7 210h63z" />
    <glyph glyph-name="dagger" unicode="&#x2020;" horiz-adv-x="754" 
d="M642 421l-235 3l3 -609h-65l3 609l-235 -3v63l235 -4l-3 235h65l-3 -235l235 4v-63z" />
    <glyph glyph-name="daggerdbl" unicode="&#x2021;" horiz-adv-x="755" 
d="M642 47l-235 3l3 -235h-65l3 235l-235 -3v63l235 -4v318l-235 -3v63l235 -4l-3 235h65l-3 -235l235 4v-63l-235 3v-318l235 4v-63z" />
    <glyph glyph-name="bullet" unicode="&#x2022;" horiz-adv-x="696" 
d="M581 313q0 -96 -68 -164t-165 -68q-96 0 -164.5 68t-68.5 164q0 97 68.5 165t164.5 68q97 0 165 -68t68 -165z" />
    <glyph glyph-name="ellipsis" unicode="&#x2026;" horiz-adv-x="678" 
d="M579 0h-63v114h63v-114zM370 0h-62v114h62v-114zM162 0h-63v114h63v-114z" />
    <glyph glyph-name="perthousand" unicode="&#x2030;" horiz-adv-x="1396" 
d="M1303 194q0 -209 -169 -209q-170 0 -170 209t170 209q169 0 169 -209zM902 194q0 -209 -169 -209q-170 0 -170 209t170 209q169 0 169 -209zM744 715l-427 -718h-66l427 718h66zM432 519q0 -209 -169 -209q-170 0 -170 209t170 209q169 0 169 -209zM1251 194
q0 161 -117 161t-117 -161q0 -162 117 -162t117 162zM850 194q0 161 -117 161t-117 -161q0 -162 117 -162t117 162zM380 519q0 161 -117 161t-117 -161t117 -161t117 161z" />
    <glyph glyph-name="guilsinglleft" unicode="&#x2039;" horiz-adv-x="457" 
d="M374 77l-43 -43l-248 247l248 246l43 -44l-203 -202z" />
    <glyph glyph-name="guilsinglright" unicode="&#x203a;" horiz-adv-x="457" 
d="M374 281l-248 -247l-43 43l203 204l-203 202l43 44z" />
    <glyph glyph-name="fraction" unicode="&#x2044;" horiz-adv-x="609" 
d="M577 715l-479 -715h-76l478 715h77z" />
    <glyph glyph-name="trademark" unicode="&#x2122;" horiz-adv-x="831" 
d="M738 345h-42l-18 281l-114 -235h-36l-113 235l-17 -281h-41l21 359h47l123 -257l124 257h44zM346 704l-1 -40h-117v-319h-43v319h-116v40h277z" />
    <glyph glyph-name="partialdiff" unicode="&#x2202;" 
 />
    <glyph glyph-name="product" unicode="&#x220f;" 
 />
    <glyph glyph-name="summation" unicode="&#x2211;" 
 />
    <glyph glyph-name="radical" unicode="&#x221a;" 
 />
    <glyph glyph-name="infinity" unicode="&#x221e;" 
 />
    <glyph glyph-name="integral" unicode="&#x222b;" 
 />
    <glyph glyph-name="approxequal" unicode="&#x2248;" 
 />
    <glyph glyph-name="approxequal" unicode="&#x22f2;" 
 />
    <glyph glyph-name="notequal" unicode="&#x2260;" horiz-adv-x="645" 
d="M525 207h-258l-46 -77l-33 21l34 56h-101v58h134l90 150h-224v57h258l45 78l33 -21l-33 -57h101v-57h-135l-90 -150h225v-58z" />
    <glyph glyph-name="lessequal" unicode="&#x2264;" horiz-adv-x="616" 
d="M522 167l-28 -28l-73 72q-49 -40 -113 -40t-113 40l-73 -72l-28 28l73 72q-41 50 -41 114t41 113l-73 72l28 28l73 -72q49 41 113 41t113 -41l73 72l28 -28l-73 -72q41 -49 41 -113t-41 -114zM451 352q0 60 -42 101.5t-101 41.5t-101 -42t-42 -101t42 -100.5t101 -41.5
t101 41.5t42 100.5z" />
    <glyph glyph-name="greaterequal" unicode="&#x2265;" 
 />
    <glyph glyph-name="lozenge" unicode="&#x25ca;" 
 />
    <glyph glyph-name="uniF000" unicode="&#xf000;" horiz-adv-x="542" 
d="M463 396h-51q-41 0 -44 -37q45 -45 45 -120t-44.5 -117.5t-117.5 -42.5q-29 0 -48 5v-42q15 -11 60 -25q72 -24 83 -28q100 -38 100 -107q0 -65 -60 -102q-52 -31 -121 -31q-67 0 -113 26q-56 32 -56 93l45 22q-1 -5 -1 -10q0 -42 44 -65q35 -18 81 -18q47 0 82 19
q43 23 43 66q0 32 -63 58q-58 20 -117 41q-63 28 -63 68q0 27 23 46q-80 39 -80 144q0 73 43.5 116.5t117.5 43.5q46 0 80 -15q3 62 71 62q8 0 18 -1l43 -5v-44zM337 -148h-26v38h26v-4h-22v-12h20v-4h-20v-14h22v-4zM296 -122q0 -5 -3.5 -8t-8.5 -3h-11v-15h-4v38h15
q12 0 12 -12zM256 -112l-15 -19v-17h-4v17l-15 19l3 2l14 -18l14 18zM213 -114h-13v-34h-4v34h-13v4h30v-4zM357 239q0 111 -106 111q-50 0 -78 -30.5t-28 -80.5q0 -112 106 -112q50 0 78 31t28 81zM292 -122q0 8 -8 8h-11v-15h11q8 0 8 7z" />
    <glyph glyph-name="uniF001" unicode="&#xf001;" horiz-adv-x="470" 
d="M395 0h-63v447l-168 1v-536l-13 -110h-50v646h-82v36l82 7v45q0 106 60 156q45 39 114 39q50 0 96 -18l-16 -47q-39 11 -78 11q-113 0 -113 -148v-34h231v-495z" />
    <glyph glyph-name="uniF002" unicode="&#xf002;" horiz-adv-x="536" 
d="M538 -7q-34 -8 -61 -8q-122 0 -122 148v583l62 10v-591q0 -96 73 -96q21 0 34 3zM330 725l-10 -52q-21 4 -46 4q-110 0 -110 -151v-32l119 1v-47h-119v-536l-13 -110h-50v646h-82v36l82 7v45q0 104 58 156q44 39 108 39q33 0 63 -6z" />
    <glyph glyph-name="glyph221" 
 />
    <glyph glyph-name="glyph224" 
 />
    <glyph glyph-name="glyph225" 
 />
    <glyph glyph-name="glyph226" 
 />
    <glyph glyph-name="glyph227" 
 />
    <glyph glyph-name="glyph228" 
 />
    <glyph glyph-name="glyph229" 
 />
    <glyph glyph-name="glyph230" 
 />
    <glyph glyph-name="glyph231" 
 />
    <glyph glyph-name="glyph232" 
 />
    <glyph glyph-name="glyph233" 
 />
    <glyph glyph-name="glyph234" 
 />
    </font>
</defs>
</svg>
