<svg width="296" height="20" viewBox="0 0 296 20" fill="none" xmlns="http://www.w3.org/2000/svg">
<g clip-path="url(#clip0_293_4719)">
<path d="M238.089 12.3249H237.01V19.5997H233.494V0.408029C235.35 0.166923 237.216 0.0306985 239.086 0C242.979 0 246.245 1.80139 246.245 6.15858C246.245 10.6697 242.61 12.3634 238.118 12.3634L238.089 12.3249ZM239.049 3.07163C238.377 3.08692 237.706 3.14086 237.04 3.23327V9.39185H238.192C240.209 9.39185 242.521 8.853 242.521 6.19711C242.492 3.67979 240.638 3.0331 239.02 3.0331L239.049 3.07163Z" fill="#706F6F"/>
<path d="M257.969 19.5996L256.809 14.2109H251.349L250.241 19.5996H246.865L250.987 0.407959H257.326L261.566 19.5996H257.961H257.969ZM254.511 3.49496H253.529L251.963 11.0315H256.159L254.511 3.49496Z" fill="#706F6F"/>
<path d="M274.125 19.592L270.645 12.7483C270.155 12.8043 269.661 12.8326 269.168 12.833H268.215V19.592H264.684V0.400323C266.519 0.155457 268.367 0.0217812 270.217 0C274.11 0 277.383 1.8245 277.383 6.36645C277.45 7.53995 277.157 8.70526 276.546 9.6935C275.935 10.6817 275.038 11.4416 273.984 11.863L278.003 19.5612H274.125V19.592ZM270.202 3.0331C269.55 3.03837 268.899 3.0821 268.252 3.16401V9.88455H269.382C271.598 9.88455 273.741 9.11473 273.741 6.42034C273.711 3.81064 271.776 3.06393 270.172 3.06393L270.202 3.0331Z" fill="#706F6F"/>
<path d="M291.507 19.5921L286.144 11.0086H284.829V19.5921H281.305V0.400391H284.829V9.63827L291.559 0.400391H295.474L288.877 9.09939L295.555 19.5921H291.507Z" fill="#706F6F"/>
<path d="M223.358 19.5921H212.277V0.400391H222.583V3.70293H215.809V8.05243H221.164V11.278H215.809V16.2972H223.61L223.358 19.5921Z" fill="#BCCF00"/>
<path d="M215.816 11.2778H215.809V16.2971H215.816V11.2778Z" fill="#00B6ED"/>
<path d="M212.285 16.3049V11.278L215.808 11.2703V16.2895L212.285 16.3049Z" fill="#00ABC1"/>
<path d="M223.617 16.2971L223.358 19.592H212.285V16.3048L223.617 16.2971Z" fill="#86BC25"/>
<path d="M222.583 3.7028V0.407959H215.838L215.823 3.7028H222.583Z" fill="#52AE32"/>
<path d="M215.823 3.7028H212.277L212.292 0.407959H215.838L215.823 3.7028Z" fill="#8EBF22"/>
<path d="M219.037 3.7028H215.823L215.838 0.407959H219.037V3.7028Z" fill="#53AF32"/>
<path d="M221.127 16.2971V19.592H223.358L223.617 16.2971H221.127Z" fill="#557E35"/>
<path d="M221.164 8.05225H215.809V11.2701H221.164V8.05225Z" fill="#52AE32"/>
<path d="M215.801 8.05225H212.277V11.2701H215.801V8.05225Z" fill="#009640"/>
<path d="M222.598 3.70293V0.400391H221.135L221.127 3.70293H222.598Z" fill="#557E35"/>
<path d="M206.397 5.50424C206.084 4.7817 205.566 4.17729 204.911 3.77359C204.257 3.36989 203.498 3.18658 202.74 3.24866C199.785 3.24866 198.596 6.01233 198.596 9.98461C198.596 14.1724 199.911 16.7745 202.895 16.7745C204.157 16.7879 205.411 16.5528 206.589 16.0816L207.542 18.9531C206.06 19.6136 204.47 19.9691 202.858 20C198.123 20 194.895 17.1517 194.895 9.99232C194.895 2.98693 198.456 -0.0153809 202.755 -0.0153809C206.028 -0.0153809 207.572 1.19322 208.731 3.28714L206.412 5.48882" fill="#009FE3"/>
<path d="M198.596 9.98462C198.596 14.1725 199.911 16.7745 202.895 16.7745C204.157 16.7879 205.411 16.5528 206.589 16.0816L207.542 18.9531C206.06 19.6136 204.47 19.9691 202.858 20C198.123 20 194.895 17.1517 194.895 9.99232H198.588" fill="#15AF97"/>
<path d="M200.051 4.4189C199.032 5.58903 198.574 7.55976 198.574 9.9847C198.574 12.4096 198.98 14.1879 199.874 15.3735L197.207 17.86C195.73 16.2587 194.858 13.7107 194.858 10.0001C194.858 6.05862 195.988 3.39503 197.739 1.81689L200.029 4.43426" fill="#00B1EB"/>
<path d="M198.596 9.98462C198.596 12.2941 199.002 14.1879 199.896 15.3734L197.229 17.8599C195.752 16.2587 194.88 13.7106 194.88 10H198.574" fill="#009BAC"/>
<path d="M206.397 5.50425L208.717 3.30257C207.557 1.20865 206.013 0 202.74 0V3.24868C203.498 3.1866 204.257 3.36991 204.911 3.77361C205.566 4.17731 206.084 4.78171 206.397 5.50425Z" fill="#213A8F"/>
<path d="M202.895 16.813L202.844 20.0385C204.455 20.0077 206.045 19.6521 207.527 18.9916L206.574 16.1201C205.396 16.5913 204.143 16.8264 202.88 16.813" fill="#00975F"/>
<path d="M187.618 19.6229L179.425 6.57437L179.477 19.5921H176.131V0.400391H179.477L187.721 13.5798L187.67 0.400391H191.016V19.6229H187.618Z" fill="#009A93"/>
<path d="M191.024 18.9608L191.016 19.6229H187.618L179.426 6.57437L179.477 0.400391L187.722 13.5798L191.024 18.9608Z" fill="#26358C"/>
<path d="M187.722 13.5796L191.024 18.9607L191.016 19.6227H187.618L187.722 13.5796Z" fill="#009DCC"/>
<path d="M179.425 6.57424L179.477 19.5919H176.131V0.407959H179.477L179.425 6.57424Z" fill="#5C2483"/>
<path d="M176.123 0.746681L176.131 0.407959H179.477L179.425 6.57424L176.123 0.746681Z" fill="#585FA8"/>
<path d="M171.772 19.5921H160.706V0.400391H171.004V3.70293H164.23V8.05243H169.593V11.278H164.23V16.2972H172.031L171.772 19.5921Z" fill="#E6007E"/>
<path d="M160.706 16.2971H172.031L171.772 19.592H160.706V16.2971Z" fill="#BC2485"/>
<path d="M171.772 19.592H169.541V16.2971H172.031L171.772 19.592Z" fill="#822B86"/>
<path d="M169.593 8.05225H164.229V11.2701H169.593V8.05225Z" fill="#951B81"/>
<path d="M164.23 8.05225H160.706V11.2701H164.23V8.05225Z" fill="#C7017F"/>
<path d="M171.004 3.7028H169.541L169.548 0.407959H171.004V3.7028Z" fill="#951B81"/>
<path d="M164.23 0.400391H160.706V3.70293H164.23V0.400391Z" fill="#D8006A"/>
<path d="M160.706 19.5921V11.278L164.23 11.2703V16.2972H160.706V19.5921Z" fill="#EA5297"/>
<path d="M164.23 19.592H160.706V16.2971H164.23V19.592Z" fill="#CA599D"/>
<path d="M148.384 19.5921V16.8592H150.496V3.14096H148.384V0.400391H156.111V3.14096H154.02V16.8592H156.111V19.5921H148.384Z" fill="#E30613"/>
<path d="M150.496 16.8591H148.384V19.592H156.111V16.8591H150.496Z" fill="#E60060"/>
<path d="M154.028 16.8591H150.496V19.5997H154.028V16.8591Z" fill="#E4003E"/>
<path d="M156.111 0.400391H148.384V3.14096H156.111V0.400391Z" fill="#E84E0F"/>
<path d="M154.027 0.400391H150.504V3.14096H154.027V0.400391Z" fill="#E63212"/>
<path d="M142.814 5.50424C142.499 4.77509 141.974 4.16614 141.312 3.76194C140.65 3.35773 139.884 3.17833 139.12 3.24866C136.165 3.24866 134.976 6.01233 134.976 9.98461C134.976 14.1724 136.29 16.7745 139.275 16.7745C140.537 16.786 141.79 16.551 142.969 16.0816L143.922 18.9531C142.437 19.6129 140.844 19.9684 139.231 20C134.488 20 131.274 17.1517 131.274 9.99232C131.274 2.98693 134.828 -0.0153809 139.127 -0.0153809C142.4 -0.0153809 143.951 1.19322 145.104 3.28714L142.791 5.48882" fill="#E84E0F"/>
<path d="M136.468 4.4189C135.448 5.58903 134.99 7.55976 134.99 9.9847C134.99 12.4096 135.404 14.1879 136.29 15.3735L133.631 17.86C132.153 16.2587 131.282 13.7107 131.282 10.0001C131.282 6.05862 132.405 3.39503 134.155 1.81689L136.453 4.43426" fill="#E30613"/>
<path d="M142.814 5.50425L145.126 3.30257C143.973 1.20865 142.422 0 139.149 0V3.24868C139.914 3.17835 140.68 3.35775 141.342 3.76196C142.004 4.16616 142.528 4.7751 142.843 5.50425" fill="#EC6608"/>
<path d="M139.312 16.813L139.253 20.0385C140.867 20.0085 142.46 19.6529 143.944 18.9916L142.991 16.1201C141.812 16.5906 140.559 16.8257 139.297 16.813" fill="#E30613"/>
<path d="M120.193 20.0001C118.447 20.0524 116.708 19.7599 115.066 19.1379L115.428 16.0586C116.847 16.6748 118.368 16.9939 119.905 16.9977C122.535 16.9977 124.109 16.1664 124.109 14.3727C124.111 13.9816 124.018 13.5964 123.838 13.253C123.659 12.9097 123.398 12.6195 123.082 12.4096C121.715 11.3935 119.521 11.0393 117.851 9.75373C117.199 9.26359 116.675 8.61234 116.324 7.85854C115.973 7.10473 115.808 6.27195 115.842 5.43499C115.842 2.10165 118.568 0.00774404 121.752 0.00774404C123.066 -0.000200443 124.369 0.261375 125.586 0.777567L125.276 3.70288C124.321 3.37456 123.326 3.19306 122.321 3.16405C120.319 3.16405 119.233 3.88769 119.233 5.28876C119.233 6.55127 120.238 7.16709 121.523 7.69827C122.808 8.22944 124.411 8.72215 125.645 9.63824C126.321 10.1018 126.87 10.7411 127.236 11.4931C127.603 12.2451 127.775 13.0837 127.736 13.9262C127.736 18.3834 123.769 20.0231 120.186 20.0231" fill="#EC6608"/>
<path d="M117.851 9.74606C117.198 9.2552 116.673 8.60275 116.322 7.84749C115.971 7.09223 115.806 6.2579 115.842 5.41966C115.842 2.09403 118.575 0.0309005 121.752 0.0309005C123.066 0.0190849 124.37 0.280806 125.586 0.800724L125.276 3.72604C124.321 3.39772 123.326 3.21617 122.321 3.18716C120.319 3.18716 119.233 3.91079 119.233 5.30417C119.233 6.56668 120.237 7.19025 121.53 7.72143L117.837 9.79225" fill="#EF7D00"/>
<path d="M125.638 9.60742C126.314 10.0722 126.863 10.7129 127.23 11.4662C127.597 12.2195 127.768 13.0594 127.728 13.903C127.728 18.3603 123.761 20 120.178 20C118.432 20.0524 116.693 19.7599 115.052 19.1378L115.413 16.0585C116.832 16.6747 118.353 16.9939 119.89 16.9977C122.52 16.9977 124.094 16.1663 124.094 14.3726C124.096 13.9816 124.003 13.5963 123.823 13.253C123.644 12.9096 123.383 12.6194 123.067 12.4096L125.638 9.61513" fill="#E30613"/>
<path d="M115.842 5.19624C115.968 2.00147 118.642 -6.8462e-05 121.752 -6.8462e-05C123.066 -0.00801294 124.369 0.253563 125.586 0.769755L125.276 3.69512C124.321 3.3668 123.326 3.18525 122.321 3.15623C120.348 3.15623 119.27 3.85675 119.233 5.20394H115.835" fill="#F7A600"/>
<path d="M127.728 14.3496C127.47 18.4682 123.658 20.0001 120.193 20.0001C118.447 20.0525 116.708 19.76 115.066 19.1379L115.428 16.0586C116.847 16.6748 118.368 16.994 119.905 16.9978C122.535 16.9978 124.109 16.1664 124.109 14.3727H127.728" fill="#FBBA00"/>
<path d="M120.193 20.0001C118.447 20.0525 116.708 19.7599 115.066 19.1379L115.428 16.0586C116.847 16.6748 118.368 16.9939 119.905 16.9978H120.193V20.0078" fill="#F59C00"/>
<path d="M6.61913 20C2.1202 20 -0.029541 17.4749 -0.029541 12.9945V0.407959H3.39083V12.3248C3.39083 15.1116 4.24038 16.7513 6.91462 16.7513C8.03727 16.7506 9.15749 16.6424 10.2611 16.428V0.407959H13.6815V19.1685C11.3534 19.7123 8.97546 19.9911 6.58958 20" fill="#706F6F"/>
<path d="M29.8524 3.70293H24.9103V19.5921H21.4899V3.70293H16.592V0.400391H30.1036L29.8524 3.70293Z" fill="#706F6F"/>
<path d="M41.9235 19.592L38.5475 12.7483C38.057 12.806 37.5637 12.8343 37.07 12.833H36.25V19.592H32.8223V0.400323C34.6032 0.155601 36.3967 0.0219121 38.1929 0C41.9679 0 45.1445 1.8245 45.1445 6.36645C45.2176 7.52792 44.938 8.6839 44.3453 9.67048C43.7526 10.6571 42.8768 11.4242 41.8423 11.863L45.7429 19.5612H41.9457L41.9235 19.592ZM38.1486 3.0331C37.5138 3.03805 36.8799 3.08179 36.25 3.16401V9.88455H37.3508C39.4931 9.88455 41.569 9.11473 41.569 6.42034C41.5468 3.81064 39.6704 3.06393 38.1264 3.06393L38.1486 3.0331Z" fill="#706F6F"/>
<path d="M59.6607 19.5921H48.9194V0.400391H58.9146V3.70293H52.3398V8.05243H57.5405V11.278H52.3398V16.2895H59.9119L59.6607 19.5921Z" fill="#706F6F"/>
<path d="M73.1058 5.50424C72.8153 4.78752 72.3158 4.18414 71.6782 3.77937C71.0405 3.3746 70.2969 3.18894 69.5525 3.24866C66.6861 3.24866 65.5337 6.01233 65.5337 9.98461C65.5337 14.1724 66.8044 16.7745 69.7076 16.7745C70.9287 16.785 72.1402 16.5497 73.2757 16.0816L74.2065 18.9531C72.7709 19.6117 71.2242 19.9676 69.6559 20C65.0609 20 61.936 17.1517 61.936 9.99232C61.936 2.98693 65.386 -0.0153809 69.5525 -0.0153809C72.729 -0.0153809 74.2287 1.19322 75.3516 3.28714L73.1354 5.48882" fill="#706F6F"/>
<path d="M88.4421 19.5921V11.278H81.2468V19.5921H77.8264V0.400391H81.2468V8.05243H88.4421V0.400391H91.8403V19.5921H88.4421Z" fill="#706F6F"/>
<path d="M107.989 3.70293H103.032V19.5921H99.6119V3.70293H94.7214V0.400391H108.233L107.989 3.70293Z" fill="#706F6F"/>
</g>
<defs>
<clipPath id="clip0_293_4719">
<rect width="295.556" height="20" fill="white"/>
</clipPath>
</defs>
</svg>
