<svg width="105" height="70" xmlns="http://www.w3.org/2000/svg" viewBox="0 0 105 70">
   <defs>
        <style>.cls-2{fill:#97cc0a;}</style>
    </defs>
    <path class="cls-2" d="M50.44,41.86A8.9,8.9,0,1,0,41.54,33,8.9,8.9,0,0,0,50.44,41.86Zm0-16.59a7.7,7.7,0,1,1-7.7,7.7A7.7,7.7,0,0,1,50.44,25.27Z"/><path class="cls-2" d="M50.44,47a15,15,0,0,0-15,15V75.76h1.2V62a13.79,13.79,0,0,1,27.57,0V75.76h1.2V62A15,15,0,0,0,50.44,47Z"/><path class="cls-2" d="M75.2,37.05a8.9,8.9,0,1,0-8.9-8.89A8.9,8.9,0,0,0,75.2,37.05Zm0-16.59a7.7,7.7,0,1,1-7.7,7.7A7.7,7.7,0,0,1,75.2,20.46Z"/><path class="cls-2" d="M74.91,42.16a15,15,0,0,0-9.82,3.66l.79.91A13.79,13.79,0,0,1,88.7,57.14V71h1.2V57.14A15,15,0,0,0,74.91,42.16Z"/><path class="cls-2" d="M25.67,37.05a8.9,8.9,0,1,0-8.89-8.89A8.9,8.9,0,0,0,25.67,37.05Zm0-16.59A7.7,7.7,0,1,1,18,28.16,7.7,7.7,0,0,1,25.67,20.46Z"/><path class="cls-2" d="M26,42.16a15,15,0,0,0-15,15V71h1.2V57.14A13.79,13.79,0,0,1,35,46.73l.79-.91A15,15,0,0,0,26,42.16Z"/>
</svg>